<svg width="50" height="50" viewBox="0 0 50 50" fill="none" xmlns="http://www.w3.org/2000/svg">
<circle cx="25" cy="25" r="25" fill="white"/>
<path fill-rule="evenodd" clip-rule="evenodd" d="M26.8742 25.5001L32.7149 19.6591C33.095 19.2792 33.095 18.6649 32.7149 18.2849C32.335 17.905 31.7207 17.905 31.3408 18.2849L25.4999 24.1259L19.6592 18.2849C19.2791 17.905 18.665 17.905 18.2851 18.2849C17.905 18.6649 17.905 19.2792 18.2851 19.6591L24.1258 25.5001L18.2851 31.3411C17.905 31.721 17.905 32.3353 18.2851 32.7153C18.4744 32.9048 18.7234 33 18.9721 33C19.2209 33 19.4697 32.9048 19.6592 32.7153L25.4999 26.8743L31.3408 32.7153C31.5303 32.9048 31.7791 33 32.0279 33C32.2766 33 32.5254 32.9048 32.7149 32.7153C33.095 32.3353 33.095 31.721 32.7149 31.3411L26.8742 25.5001Z" fill="black"/>
</svg>
