<svg width="50" height="50" viewBox="0 0 50 50" fill="none" xmlns="http://www.w3.org/2000/svg">
<circle cx="25" cy="25" r="25" fill="white"/>
<path fill-rule="evenodd" clip-rule="evenodd" d="M16.2501 20C16.2501 19.5858 16.5859 19.25 17.0001 19.25H33.0001C33.4143 19.25 33.7501 19.5858 33.7501 20C33.7501 20.4142 33.4143 20.75 33.0001 20.75H17.0001C16.5859 20.75 16.2501 20.4142 16.2501 20ZM16.2501 25C16.2501 24.5858 16.5859 24.25 17.0001 24.25H33.0001C33.4143 24.25 33.7501 24.5858 33.7501 25C33.7501 25.4142 33.4143 25.75 33.0001 25.75H17.0001C16.5859 25.75 16.2501 25.4142 16.2501 25ZM17.0001 29.25C16.5859 29.25 16.2501 29.5858 16.2501 30C16.2501 30.4142 16.5859 30.75 17.0001 30.75H33.0001C33.4143 30.75 33.7501 30.4142 33.7501 30C33.7501 29.5858 33.4143 29.25 33.0001 29.25H17.0001Z" fill="#22282F"/>
</svg>
