<svg width="57" height="57" viewBox="0 0 57 57" fill="none" xmlns="http://www.w3.org/2000/svg">
<circle cx="28.5" cy="28.5" r="28.5" fill="white"/>
<path fill-rule="evenodd" clip-rule="evenodd" d="M24.1774 17.344C24.6777 16.8437 25.4889 16.8437 25.9893 17.344L36.2393 27.5941C36.7396 28.0944 36.7396 28.9056 36.2393 29.4059L25.9893 39.6559C25.4889 40.1563 24.6777 40.1563 24.1774 39.6559C23.677 39.1556 23.677 38.3444 24.1774 37.8441L33.5213 28.5L24.1774 19.156C23.677 18.6556 23.677 17.8444 24.1774 17.344Z" fill="#22282F"/>
<path fill-rule="evenodd" clip-rule="evenodd" d="M36.2393 27.594C36.7396 28.0944 36.7396 28.9055 36.2393 29.4059L25.9893 39.6559C25.4889 40.1563 24.6777 40.1563 24.1774 39.6559C23.677 39.1555 23.677 38.3444 24.1774 37.844L34.4274 27.594C34.9278 27.0937 35.7389 27.0937 36.2393 27.594Z" fill="#22282F"/>
</svg>
