<svg width="30" height="30" viewBox="0 0 30 30" fill="none" xmlns="http://www.w3.org/2000/svg">
<g clip-path="url(#clip0_10_24)">
<path d="M17.233 15L29.5376 2.69543C30.1542 2.07879 30.1542 1.07906 29.5376 0.46248C28.9209 -0.15416 27.9212 -0.15416 27.3046 0.46248L15 12.767L2.69542 0.46248C2.07878 -0.15416 1.07906 -0.15416 0.46248 0.46248C-0.154101 1.07912 -0.15416 2.07885 0.46248 2.69543L12.767 15L0.46248 27.3045C-0.15416 27.9212 -0.15416 28.9209 0.46248 29.5375C1.07912 30.1541 2.07884 30.1541 2.69542 29.5375L15 17.2329L27.3045 29.5375C27.9211 30.1541 28.9209 30.1541 29.5375 29.5375C30.154 28.9208 30.154 27.9211 29.5375 27.3045L17.233 15Z" fill="#FF0000"/>
</g>
<defs>
<clipPath id="clip0_10_24">
<rect width="30" height="30" fill="white"/>
</clipPath>
</defs>
</svg>
