<svg width="482" height="482" viewBox="0 0 482 482" fill="none" xmlns="http://www.w3.org/2000/svg">
<path d="M296.13 139.576H292.219L294.094 136.383H299.543V159H296.13V139.576ZM305.974 147.545C305.974 143.941 306.813 141.065 308.493 138.917C309.997 136.974 311.818 136.002 313.957 136.002C316.096 136.002 317.917 136.974 319.421 138.917C321.101 141.065 321.94 143.99 321.94 147.691C321.94 151.383 321.101 154.303 319.421 156.451C317.917 158.395 316.101 159.366 313.972 159.366C311.843 159.366 310.017 158.395 308.493 156.451C306.813 154.303 305.974 151.334 305.974 147.545ZM309.328 147.56C309.328 150.069 309.763 152.154 310.632 153.814C311.501 155.445 312.609 156.261 313.957 156.261C315.295 156.261 316.403 155.445 317.282 153.814C318.161 152.193 318.601 150.147 318.601 147.677C318.601 145.206 318.161 143.155 317.282 141.524C316.403 139.903 315.295 139.093 313.957 139.093C312.629 139.093 311.525 139.903 310.646 141.524C309.768 143.136 309.328 145.147 309.328 147.56ZM324.489 147.545C324.489 143.941 325.329 141.065 327.009 138.917C328.513 136.974 330.334 136.002 332.473 136.002C334.611 136.002 336.433 136.974 337.937 138.917C339.616 141.065 340.456 143.99 340.456 147.691C340.456 151.383 339.616 154.303 337.937 156.451C336.433 158.395 334.616 159.366 332.487 159.366C330.358 159.366 328.532 158.395 327.009 156.451C325.329 154.303 324.489 151.334 324.489 147.545ZM327.844 147.56C327.844 150.069 328.278 152.154 329.147 153.814C330.017 155.445 331.125 156.261 332.473 156.261C333.811 156.261 334.919 155.445 335.798 153.814C336.677 152.193 337.116 150.147 337.116 147.677C337.116 145.206 336.677 143.155 335.798 141.524C334.919 139.903 333.811 139.093 332.473 139.093C331.145 139.093 330.041 139.903 329.162 141.524C328.283 143.136 327.844 145.147 327.844 147.56ZM342.858 141.407C342.858 139.991 343.4 138.761 344.484 137.716C345.588 136.671 346.862 136.148 348.308 136.148C349.792 136.148 351.071 136.676 352.146 137.73C353.22 138.775 353.757 140.025 353.757 141.48C353.757 142.945 353.22 144.2 352.146 145.245C351.071 146.29 349.777 146.812 348.264 146.812C346.779 146.812 345.505 146.28 344.44 145.216C343.386 144.151 342.858 142.882 342.858 141.407ZM345.407 141.451C345.407 142.271 345.69 142.965 346.257 143.531C346.823 144.098 347.512 144.381 348.322 144.381C349.113 144.381 349.792 144.098 350.358 143.531C350.925 142.965 351.208 142.281 351.208 141.48C351.208 140.689 350.925 140.011 350.358 139.444C349.792 138.878 349.108 138.595 348.308 138.595C347.507 138.595 346.823 138.878 346.257 139.444C345.69 140.011 345.407 140.68 345.407 141.451ZM361.154 135.987L362.751 136.896L349.802 159.366L348.19 158.399L361.154 135.987ZM357.17 153.8C357.17 152.394 357.712 151.168 358.796 150.123C359.899 149.078 361.174 148.556 362.619 148.556C364.113 148.556 365.397 149.083 366.472 150.138C367.546 151.183 368.083 152.433 368.083 153.888C368.083 155.362 367.541 156.617 366.457 157.652C365.393 158.688 364.099 159.205 362.575 159.205C361.091 159.205 359.816 158.678 358.752 157.623C357.697 156.568 357.17 155.294 357.17 153.8ZM359.733 153.858C359.733 154.679 360.012 155.372 360.568 155.938C361.135 156.505 361.823 156.788 362.634 156.788C363.435 156.788 364.113 156.505 364.67 155.938C365.236 155.372 365.52 154.688 365.52 153.888C365.52 153.087 365.236 152.403 364.67 151.837C364.113 151.271 363.43 150.987 362.619 150.987C361.828 150.987 361.149 151.271 360.583 151.837C360.017 152.403 359.733 153.077 359.733 153.858Z" fill="white"/>
<g filter="url(#filter0_d_63_483)">
<path d="M374 249.5C374 333.723 305.723 402 221.5 402C137.277 402 69 333.723 69 249.5C69 165.277 137.277 97 221.5 97C263.973 97 193.849 230.168 221.5 258.183C248.681 285.722 374 207.749 374 249.5Z" fill="url(#paint0_linear_63_483)" shape-rendering="crispEdges"/>
<path d="M372.5 249.5C372.5 332.895 304.895 400.5 221.5 400.5C138.105 400.5 70.5 332.895 70.5 249.5C70.5 166.105 138.105 98.5 221.5 98.5C226.335 98.5 229.368 100.348 231.271 103.544C233.258 106.88 234.113 111.851 234.03 118.226C233.863 130.948 229.992 148.296 225.599 166.738C225.135 168.684 224.666 170.641 224.196 172.605C220.225 189.167 216.138 206.219 214.319 220.996C213.301 229.265 212.981 236.906 213.815 243.405C214.648 249.893 216.653 255.408 220.432 259.237C224.169 263.023 229.492 264.894 235.712 265.497C241.935 266.101 249.212 265.453 257.059 264.05C271.584 261.452 288.367 256.204 304.524 251.152C305.817 250.748 307.106 250.344 308.39 249.944C325.805 244.512 342.145 239.603 354.118 238.611C360.123 238.113 364.756 238.631 367.838 240.329C369.347 241.161 370.487 242.276 371.263 243.727C372.045 245.19 372.5 247.076 372.5 249.5Z" stroke="url(#paint1_linear_63_483)" stroke-width="3" shape-rendering="crispEdges"/>
</g>
<path d="M281.452 71.0576L260.839 199.781C258.611 213.694 271.772 225.107 285.23 220.932L401.411 184.89C415.19 180.615 419.365 163.147 409.009 153.103L313.44 60.4223C302.402 49.7178 283.883 55.8748 281.452 71.0576Z" stroke="white" stroke-width="1.5" stroke-dasharray="3 3"/>
<circle cx="241" cy="241" r="240.5" stroke="white" stroke-opacity="0.18"/>
<defs>
<filter id="filter0_d_63_483" x="29" y="87" width="385" height="385" filterUnits="userSpaceOnUse" color-interpolation-filters="sRGB">
<feFlood flood-opacity="0" result="BackgroundImageFix"/>
<feColorMatrix in="SourceAlpha" type="matrix" values="0 0 0 0 0 0 0 0 0 0 0 0 0 0 0 0 0 0 127 0" result="hardAlpha"/>
<feOffset dy="30"/>
<feGaussianBlur stdDeviation="20"/>
<feComposite in2="hardAlpha" operator="out"/>
<feColorMatrix type="matrix" values="0 0 0 0 0 0 0 0 0 0 0 0 0 0 0 0 0 0 0.04 0"/>
<feBlend mode="normal" in2="BackgroundImageFix" result="effect1_dropShadow_63_483"/>
<feBlend mode="normal" in="SourceGraphic" in2="effect1_dropShadow_63_483" result="shape"/>
</filter>
<linearGradient id="paint0_linear_63_483" x1="221.5" y1="97" x2="221.5" y2="402" gradientUnits="userSpaceOnUse">
<stop stop-color="#6B48FF" stop-opacity="0"/>
<stop offset="1" stop-color="#6B48FF"/>
</linearGradient>
<linearGradient id="paint1_linear_63_483" x1="221.5" y1="97" x2="221.5" y2="402" gradientUnits="userSpaceOnUse">
<stop stop-color="#6B48FF" stop-opacity="0"/>
<stop offset="0.970971" stop-color="#6B48FF"/>
</linearGradient>
</defs>
</svg>
