<svg width="51" height="41" viewBox="0 0 51 41" fill="none" xmlns="http://www.w3.org/2000/svg">
<path fill-rule="evenodd" clip-rule="evenodd" d="M13.5096 0.447755H13.5832H37.4164H37.49C39.3529 0.447732 40.8553 0.447732 42.072 0.547121C43.3246 0.64949 44.425 0.865732 45.443 1.38443C47.06 2.20833 48.3747 3.52301 49.1986 5.14003C49.7174 6.15801 49.9335 7.25836 50.036 8.51105C50.0992 9.28646 50.1221 10.1779 50.1306 11.2047C50.1336 11.2471 50.1352 11.29 50.1352 11.3332C50.1352 11.3681 50.1343 11.4028 50.1322 11.4372C50.1352 11.9534 50.1352 12.5029 50.1352 13.0879V13.0929V13.1665V27.8332V27.9067C50.1352 29.7696 50.1354 31.272 50.036 32.4887C49.9335 33.7413 49.7174 34.8415 49.1986 35.8597C48.3747 37.4767 47.06 38.7915 45.443 39.6153C44.425 40.1339 43.3246 40.3503 42.072 40.4525C40.8553 40.5519 39.3529 40.5519 37.4902 40.5519H37.4164H13.5832H13.5096C11.6468 40.5519 10.1444 40.5519 8.92774 40.4525C7.67502 40.3503 6.5747 40.1339 5.5567 39.6153C3.9397 38.7915 2.62501 37.4767 1.80109 35.8597C1.2824 34.8415 1.06615 33.7413 0.963808 32.4887C0.864419 31.272 0.864419 29.7694 0.864442 27.9067V27.8332V13.1665V13.0929C0.864442 12.506 0.864419 11.9549 0.867535 11.4372C0.865473 11.4028 0.864442 11.3681 0.864442 11.3332C0.864442 11.29 0.866023 11.2471 0.869162 11.2047C0.877481 10.1779 0.900467 9.28644 0.963808 8.51105C1.06615 7.25836 1.2824 6.15801 1.80109 5.14003C2.62501 3.52301 3.9397 2.20833 5.5567 1.38443C6.5747 0.865732 7.67502 0.64949 8.92774 0.547121C10.1444 0.447732 11.6469 0.447732 13.5096 0.447755ZM46.6099 8.79098C46.6308 9.04657 46.6466 9.31969 46.6587 9.61442H4.34095C4.35309 9.31969 4.36902 9.04657 4.3899 8.79098C4.47487 7.75084 4.63329 7.15326 4.86393 6.70061C5.35829 5.73041 6.1471 4.9416 7.1173 4.44726C7.56995 4.21663 8.16753 4.05821 9.20767 3.97321C10.2679 3.88658 11.6296 3.88525 13.5832 3.88525H37.4164C39.3701 3.88525 40.7318 3.88658 41.7921 3.97321C42.8321 4.05821 43.4298 4.21663 43.8824 4.44726C44.8527 4.9416 45.6415 5.73041 46.1358 6.70061C46.3663 7.15326 46.5249 7.75084 46.6099 8.79098ZM10.0311 20.4998C10.0311 19.5506 10.8006 18.7811 11.7499 18.7811H20.9165C21.8659 18.7811 22.6352 19.5506 22.6352 20.4998C22.6352 21.449 21.8659 22.2186 20.9165 22.2186H11.7499C10.8006 22.2186 10.0311 21.449 10.0311 20.4998Z" fill="url(#paint0_linear_11_455)"/>
<defs>
<linearGradient id="paint0_linear_11_455" x1="25.4998" y1="0.447754" x2="25.4998" y2="40.5519" gradientUnits="userSpaceOnUse">
<stop stop-color="#3F2F92"/>
<stop offset="1" stop-color="#6B48FF"/>
</linearGradient>
</defs>
</svg>
