<svg width="45" height="49" viewBox="0 0 45 49" fill="none" xmlns="http://www.w3.org/2000/svg">
<path fill-rule="evenodd" clip-rule="evenodd" d="M9.08881 15.3332C8.75028 16.8305 8.75028 18.4106 8.75028 21.5708V26.5923C6.48426 27.1625 4.86739 27.622 3.59932 28.5716C2.37612 29.4874 1.41926 30.713 0.827346 32.1219C0.1541 33.7242 0.155016 35.5908 0.156369 38.2991L0.156483 38.6713V43.8328C0.156483 44.3619 0.400316 44.8617 0.817491 45.1874C1.23467 45.5133 1.77864 45.6285 2.29209 45.5002L9.15419 43.7847C9.24659 44.0993 9.36011 44.389 9.49961 44.6628C10.1587 45.9562 11.2105 47.0081 12.5041 47.6672C13.9747 48.4166 15.8999 48.4166 19.7502 48.4166H20.7815V39.2492C20.7815 38.3 21.551 37.5305 22.5002 37.5305C23.4494 37.5305 24.219 38.3 24.219 39.2492V48.4166H25.2502C29.1007 48.4166 31.0259 48.4166 32.4965 47.6672C33.7901 47.0081 34.8418 45.9562 35.5009 44.6628C35.6404 44.389 35.7541 44.0995 35.8464 43.7847L42.7084 45.5002C43.2219 45.6285 43.7658 45.5133 44.1831 45.1874C44.6002 44.8617 44.844 44.3619 44.844 43.8328V38.6713L44.8442 38.2991C44.8454 35.5908 44.8463 33.7242 44.1732 32.1219C43.5813 30.713 42.6243 29.4874 41.4012 28.5716C40.133 27.622 38.5162 27.1625 36.2502 26.5923V21.5708C36.2502 18.4106 36.2502 16.8305 35.9118 15.3332C35.6115 14.0054 35.1159 12.7296 34.4407 11.5474C33.6797 10.2144 32.6129 9.04876 30.4791 6.71747L27.9099 3.91036C26.0331 1.85989 25.0949 0.834643 23.9935 0.455143C23.0259 0.121723 21.9745 0.121723 21.007 0.455143C19.9058 0.834643 18.9674 1.85989 17.0907 3.91036L14.5215 6.71747C12.3878 9.04873 11.3209 10.2144 10.5598 11.5474C9.88472 12.7296 9.38901 14.0054 9.08881 15.3332ZM36.2314 40.3375C36.2502 39.5041 36.2502 38.5427 36.2502 37.4166V30.1451C37.9901 30.605 38.7546 30.8842 39.3408 31.323C40.0748 31.8728 40.6489 32.608 41.0041 33.4534C41.3737 34.3334 41.4065 35.4407 41.4065 38.6713V41.6314L36.2314 40.3375ZM8.75028 30.1451V37.4166C8.75028 38.5427 8.75028 39.5041 8.76903 40.3375L3.59398 41.6314V38.6713C3.59398 35.4407 3.62675 34.3334 3.99649 33.4534C4.35165 32.608 4.92576 31.8728 5.65969 31.3233C6.24602 30.8842 7.01035 30.605 8.75028 30.1451ZM22.5002 27.792C25.0316 27.792 27.0836 25.7401 27.0836 23.2087C27.0836 20.6775 25.0316 18.6255 22.5002 18.6255C19.9691 18.6255 17.9169 20.6775 17.9169 23.2087C17.9169 25.7401 19.9691 27.792 22.5002 27.792Z" fill="url(#paint0_linear_11_446)"/>
<defs>
<linearGradient id="paint0_linear_11_446" x1="22.5003" y1="0.205078" x2="22.5003" y2="48.4166" gradientUnits="userSpaceOnUse">
<stop stop-color="#3F2F92"/>
<stop offset="1" stop-color="#6B48FF"/>
</linearGradient>
</defs>
</svg>
