<svg width="45" height="45" viewBox="0 0 45 45" fill="none" xmlns="http://www.w3.org/2000/svg">
<path fill-rule="evenodd" clip-rule="evenodd" d="M16.5414 0.15625H16.4658H16.4657C13.9629 0.15625 11.9795 0.156227 10.3808 0.286852C8.74592 0.42041 7.36263 0.6991 6.0995 1.34269C4.05128 2.38632 2.38604 4.05158 1.34242 6.0998C0.698826 7.3629 0.420136 8.74622 0.286578 10.381C0.155953 11.9798 0.155953 13.9632 0.155976 16.466V16.466V16.5417V28.4583V28.534C0.155953 31.0369 0.155953 33.0201 0.286578 34.619C0.420136 36.2539 0.698826 37.6371 1.34242 38.9003C2.38604 40.9484 4.05128 42.6137 6.0995 43.6574C7.36263 44.3009 8.74592 44.5795 10.3808 44.7131C11.9795 44.8438 13.9629 44.8438 16.4657 44.8438H16.5414H28.4581H28.5337C31.0365 44.8438 33.0199 44.8438 34.6186 44.7131C36.2534 44.5795 37.6369 44.3009 38.8999 43.6574C40.9481 42.6137 42.6135 40.9484 43.6571 38.9003C44.3006 37.6371 44.5793 36.2539 44.7129 34.619C44.8435 33.0201 44.8435 31.0369 44.8435 28.534V28.4583V16.5417V16.466C44.8435 13.9632 44.8435 11.9798 44.7129 10.3811C44.5793 8.74622 44.3006 7.3629 43.6571 6.0998C42.6135 4.05158 40.9481 2.38632 38.8999 1.34269C37.6369 0.6991 36.2534 0.42041 34.6186 0.286852C33.0199 0.156227 31.0365 0.15625 28.5337 0.15625H28.4581H16.5414ZM35.1734 14.4097C35.8446 15.0809 35.8446 16.1691 35.1734 16.8403L26.0067 26.0069C25.6845 26.3294 25.2473 26.5104 24.7914 26.5104C24.3356 26.5104 23.8984 26.3294 23.5762 26.0069L20.2081 22.6391L12.2568 30.5903C11.5856 31.2615 10.4973 31.2615 9.82612 30.5903C9.15489 29.919 9.15489 28.831 9.82612 28.1597L18.9928 18.9931C19.6641 18.3218 20.7521 18.3218 21.4234 18.9931L24.7914 22.3609L32.7428 14.4097C33.4141 13.7385 34.5021 13.7385 35.1734 14.4097Z" fill="url(#paint0_linear_11_457)"/>
<defs>
<linearGradient id="paint0_linear_11_457" x1="22.4998" y1="0.15625" x2="22.4998" y2="44.8438" gradientUnits="userSpaceOnUse">
<stop stop-color="#3F2F92"/>
<stop offset="1" stop-color="#6B48FF"/>
</linearGradient>
</defs>
</svg>
