<svg width="45" height="45" viewBox="0 0 45 45" fill="none" xmlns="http://www.w3.org/2000/svg">
<path fill-rule="evenodd" clip-rule="evenodd" d="M16.5417 0.156251H16.466C13.9632 0.156228 11.9798 0.156227 10.381 0.286852C8.7462 0.420411 7.3629 0.6991 6.0998 1.34269C4.05158 2.38632 2.38632 4.05158 1.34269 6.0998C0.6991 7.3629 0.420411 8.7462 0.286852 10.381C0.156227 11.9798 0.156228 13.9632 0.156251 16.466V16.466V16.5417V28.4583V28.534C0.156228 31.0367 0.156227 33.0201 0.286852 34.619C0.420411 36.2539 0.6991 37.6371 1.34269 38.9003C2.38632 40.9484 4.05158 42.6137 6.0998 43.6574C7.3629 44.3009 8.7462 44.5795 10.381 44.7131C11.9798 44.8438 13.9632 44.8438 16.466 44.8438H16.5417H27.8831H28.0976C28.789 44.844 29.3972 44.844 29.9479 44.8323V39V38.9301C29.9479 37.7061 29.9479 36.6843 30.016 35.8496C30.0873 34.979 30.241 34.1618 30.6347 33.3889C31.239 32.2031 32.2031 31.239 33.3889 30.6347C34.1618 30.241 34.979 30.087 35.8496 30.016C36.6843 29.9479 37.7061 29.9479 38.9301 29.9479H39H44.8323C44.844 29.3972 44.844 28.789 44.8438 28.0976V27.8831V16.5417V16.466C44.8438 13.9632 44.8438 11.9798 44.7131 10.381C44.5795 8.7462 44.3009 7.3629 43.6574 6.0998C42.6137 4.05158 40.9484 2.38632 38.9003 1.34269C37.6371 0.6991 36.2539 0.420411 34.619 0.286852C33.0201 0.156227 31.0367 0.156228 28.534 0.156251H28.4583H16.5417ZM44.3554 33.3854H39C37.6883 33.3854 36.8078 33.3868 36.1297 33.442C35.4718 33.4959 35.1571 33.5919 34.9495 33.6975C34.4105 33.9723 33.9723 34.4105 33.6975 34.9495C33.5919 35.1569 33.4959 35.4715 33.4422 36.1295C33.3868 36.8076 33.3854 37.688 33.3854 39V44.3554C34.2489 44.0875 35.0767 43.713 35.849 43.2396C36.9496 42.5651 37.8778 41.6368 39.3179 40.1963L39.4693 40.0445L40.0445 39.4693L40.196 39.3179H40.1963C41.6368 37.8778 42.5651 36.9496 43.2396 35.849C43.713 35.0767 44.0875 34.2489 44.3554 33.3854ZM9.32292 11.0417C9.32292 10.0924 10.0924 9.32292 11.0417 9.32292H29.375C30.3242 9.32292 31.0938 10.0924 31.0938 11.0417C31.0938 11.9909 30.3242 12.7604 29.375 12.7604H11.0417C10.0924 12.7604 9.32292 11.9909 9.32292 11.0417ZM11.0417 18.4896C10.0924 18.4896 9.32292 19.2591 9.32292 20.2083C9.32292 21.1575 10.0924 21.9271 11.0417 21.9271H24.7917C25.7409 21.9271 26.5104 21.1575 26.5104 20.2083C26.5104 19.2591 25.7409 18.4896 24.7917 18.4896H11.0417ZM9.32292 29.375C9.32292 28.4258 10.0924 27.6562 11.0417 27.6562H15.625C16.5742 27.6562 17.3438 28.4258 17.3438 29.375C17.3438 30.3242 16.5742 31.0938 15.625 31.0938H11.0417C10.0924 31.0938 9.32292 30.3242 9.32292 29.375Z" fill="url(#paint0_linear_11_459)"/>
<defs>
<linearGradient id="paint0_linear_11_459" x1="22.5" y1="0.15625" x2="22.5" y2="44.8438" gradientUnits="userSpaceOnUse">
<stop stop-color="#3F2F92"/>
<stop offset="1" stop-color="#6B48FF"/>
</linearGradient>
</defs>
</svg>
