<svg width="43" height="43" viewBox="0 0 43 43" fill="none" xmlns="http://www.w3.org/2000/svg">
<path fill-rule="evenodd" clip-rule="evenodd" d="M7.75 0.875C3.95305 0.875 0.875 3.95305 0.875 7.75C0.875 11.5469 3.95305 14.625 7.75 14.625C10.9535 14.625 13.6452 12.434 14.4084 9.46875H21.5C22.4492 9.46875 23.2188 8.69923 23.2188 7.75C23.2188 6.80077 22.4492 6.03125 21.5 6.03125H14.4084C13.6452 3.06602 10.9535 0.875 7.75 0.875ZM28.375 7.75C28.375 3.95305 31.4529 0.875 35.25 0.875C39.0471 0.875 42.125 3.95305 42.125 7.75C42.125 10.9535 39.9339 13.6452 36.9688 14.4084V21.5C36.9688 22.4492 36.1992 23.2188 35.25 23.2188C34.3008 23.2188 33.5312 22.4492 33.5312 21.5V14.4084C30.5661 13.6452 28.375 10.9535 28.375 7.75ZM9.46875 21.5C9.46875 20.5508 8.69923 19.7812 7.75 19.7812C6.80077 19.7812 6.03125 20.5508 6.03125 21.5V28.5916C3.06602 29.3547 0.875 32.0465 0.875 35.25C0.875 39.0471 3.95305 42.125 7.75 42.125C11.5469 42.125 14.625 39.0471 14.625 35.25C14.625 32.0465 12.434 29.3547 9.46875 28.5916V21.5ZM21.5 33.5312C20.5508 33.5312 19.7812 34.3008 19.7812 35.25C19.7812 36.1992 20.5508 36.9688 21.5 36.9688H28.5916C29.3547 39.9339 32.0465 42.125 35.25 42.125C39.0471 42.125 42.125 39.0471 42.125 35.25C42.125 31.4529 39.0471 28.375 35.25 28.375C32.0465 28.375 29.3547 30.5661 28.5916 33.5312H21.5Z" fill="url(#paint0_linear_11_461)"/>
<defs>
<linearGradient id="paint0_linear_11_461" x1="21.5" y1="0.875" x2="21.5" y2="42.125" gradientUnits="userSpaceOnUse">
<stop stop-color="#3F2F92"/>
<stop offset="1" stop-color="#6B48FF"/>
</linearGradient>
</defs>
</svg>
