<svg width="51" height="45" viewBox="0 0 51 45" fill="none" xmlns="http://www.w3.org/2000/svg">
<path fill-rule="evenodd" clip-rule="evenodd" d="M17.25 0.15625H17.1744H17.1742C14.6715 0.15625 12.6881 0.156227 11.0894 0.286852C9.45452 0.420433 8.07123 0.6991 6.80811 1.34269C4.75988 2.38632 3.09465 4.05158 2.05102 6.0998C1.40743 7.3629 1.12874 8.74622 0.995181 10.3811C0.864556 11.9798 0.864556 13.9632 0.864579 16.466V16.5417V28.4583V28.534C0.864556 31.0369 0.864556 33.0204 0.995181 34.619C1.12874 36.2539 1.40743 37.6371 2.05102 38.9003C3.09465 40.9484 4.75988 42.6137 6.80811 43.6574C8.07123 44.3009 9.45452 44.5795 11.0894 44.7131C12.6881 44.8438 14.6715 44.8438 17.1743 44.8438H17.25H33.75H33.8256C36.3286 44.8438 38.3118 44.8438 39.9107 44.7131C41.5456 44.5795 42.9288 44.3009 44.192 43.6574C46.24 42.6137 47.9054 40.9484 48.949 38.9003C49.5925 37.6371 49.8712 36.2539 50.0048 34.619C50.1354 33.0204 50.1354 31.0369 50.1354 28.534V28.4583V16.5417V16.466C50.1354 13.9632 50.1354 11.9798 50.0048 10.3811C49.8712 8.74622 49.5925 7.3629 48.949 6.0998C47.9054 4.05158 46.24 2.38632 44.192 1.34269C42.9288 0.6991 41.5456 0.420433 39.9107 0.286852C38.3118 0.156227 36.3283 0.15625 33.8256 0.15625H33.75H17.25ZM30.0833 13.9062C30.6581 13.9062 31.1946 14.1934 31.5133 14.6716L35.5865 20.7812H39.25C40.1992 20.7812 40.9687 21.5508 40.9687 22.5C40.9687 23.4492 40.1992 24.2188 39.25 24.2188H34.6667C34.0919 24.2188 33.5554 23.9316 33.2367 23.4533L30.0833 18.7236L22.3467 30.3283C22.0279 30.8066 21.4914 31.0938 20.9167 31.0938C20.342 31.0938 19.8053 30.8066 19.4866 30.3283L15.4135 24.2188H11.75C10.8008 24.2188 10.0312 23.4492 10.0312 22.5C10.0312 21.5508 10.8008 20.7812 11.75 20.7812H16.3333C16.908 20.7812 17.4446 21.0684 17.7634 21.5467L20.9167 26.2764L28.6533 14.6716C28.9721 14.1934 29.5086 13.9062 30.0833 13.9062Z" fill="url(#paint0_linear_11_449)"/>
<defs>
<linearGradient id="paint0_linear_11_449" x1="25.5" y1="0.15625" x2="25.5" y2="44.8438" gradientUnits="userSpaceOnUse">
<stop stop-color="#3F2F92"/>
<stop offset="1" stop-color="#6B48FF"/>
</linearGradient>
</defs>
</svg>
