<svg width="37" height="45" viewBox="0 0 37 45" fill="none" xmlns="http://www.w3.org/2000/svg">
<path fill-rule="evenodd" clip-rule="evenodd" d="M11.625 0.15625C12.5743 0.15625 13.3438 0.925769 13.3438 1.875V11.6146H23.6562V1.875C23.6562 0.925769 24.4258 0.15625 25.375 0.15625C26.3242 0.15625 27.0937 0.925769 27.0937 1.875V11.6146H27.2083H27.2782C28.5022 11.6146 29.524 11.6145 30.3587 11.6827C31.2293 11.7539 32.0465 11.9077 32.8195 12.3015C34.0052 12.9057 34.9693 13.8698 35.5736 15.0556C35.9673 15.8285 36.1211 16.6458 36.1923 17.5164C36.2604 18.3509 36.2604 19.3728 36.2604 20.5968V20.6667V25.5915V25.806C36.2609 27.8428 36.2611 29.1555 35.9597 30.4108C35.693 31.5216 35.2532 32.5833 34.6565 33.5573C33.9818 34.658 33.0534 35.5861 31.6129 37.0262L31.4612 37.1777L26.4466 42.1925L26.3292 42.3099C25.6511 42.9886 25.1176 43.5231 24.4778 43.9152C23.9138 44.2605 23.2992 44.5154 22.6561 44.6696C21.9265 44.8449 21.1711 44.8444 20.2119 44.8437H20.0457H16.9543H16.7881C15.8288 44.8444 15.0737 44.8449 14.344 44.6696C13.7009 44.5154 13.0862 44.2605 12.5224 43.9152C11.8825 43.5231 11.3488 42.9886 10.6709 42.3099H10.6709L10.5535 42.1925L5.53879 37.1777L5.3872 37.0262C3.94661 35.5861 3.01821 34.658 2.34368 33.5573C1.74684 32.5833 1.30703 31.5216 1.04037 30.4108C0.739013 29.1555 0.739242 27.8428 0.739586 25.806L0.739609 25.5915V20.6667V20.597V20.5968V20.5965C0.739586 19.3726 0.739563 18.3509 0.807763 17.5164C0.878896 16.6458 1.03269 15.8285 1.42649 15.0556C2.03069 13.8698 2.99479 12.9057 4.18062 12.3015C4.9535 11.9077 5.77085 11.7539 6.64141 11.6827C7.4761 11.6145 8.49782 11.6146 9.72191 11.6146H9.72196H9.79169H9.90628V1.875C9.90628 0.925769 10.6758 0.15625 11.625 0.15625Z" fill="url(#paint0_linear_11_453)"/>
<defs>
<linearGradient id="paint0_linear_11_453" x1="18.5" y1="0.15625" x2="18.5" y2="44.8438" gradientUnits="userSpaceOnUse">
<stop stop-color="#3F2F92"/>
<stop offset="1" stop-color="#6B48FF"/>
</linearGradient>
</defs>
</svg>
