<svg width="47" height="47" viewBox="0 0 47 47" fill="none" xmlns="http://www.w3.org/2000/svg">
<path fill-rule="evenodd" clip-rule="evenodd" d="M23.5 46.4168C36.1564 46.4168 46.4166 36.1566 46.4166 23.5002C46.4166 10.8436 36.1564 0.583496 23.5 0.583496C10.8434 0.583496 0.583313 10.8436 0.583313 23.5002C0.583313 36.1566 10.8434 46.4168 23.5 46.4168ZM33.8819 17.8405C34.5531 17.1693 34.5531 16.081 33.8819 15.4098C33.2107 14.7386 32.1226 14.7386 31.4514 15.4098L21.2083 25.6527L17.8403 22.2849C17.1691 21.6137 16.0808 21.6137 15.4096 22.2849C14.7384 22.9561 14.7384 24.0442 15.4096 24.7154L19.993 29.2988C20.3153 29.6212 20.7525 29.8022 21.2083 29.8022C21.6641 29.8022 22.1014 29.6212 22.4236 29.2988L33.8819 17.8405Z" fill="url(#paint0_linear_11_451)"/>
<defs>
<linearGradient id="paint0_linear_11_451" x1="23.5" y1="0.583496" x2="23.5" y2="46.4168" gradientUnits="userSpaceOnUse">
<stop stop-color="#3F2F92"/>
<stop offset="1" stop-color="#6B48FF"/>
</linearGradient>
</defs>
</svg>
