<?xml version="1.0" encoding="utf-8"?>
<svg width="552px" height="566px" viewBox="0 0 552 566" version="1.1" xmlns:xlink="http://www.w3.org/1999/xlink" xmlns="http://www.w3.org/2000/svg">
  <defs>
    <linearGradient x1="0.5" y1="0" x2="0.5" y2="1" id="gradient_1">
      <stop offset="0%" stop-color="#6B48FF" stop-opacity="0" />
      <stop offset="100%" stop-color="#6B48FF" />
    </linearGradient>
    <linearGradient x1="0.5" y1="-0.012820482" x2="0.5" y2="1.0128206" id="gradient_2">
      <stop offset="0%" stop-color="#6B48FF" stop-opacity="0" />
      <stop offset="97.0971%" stop-color="#6B48FF" />
    </linearGradient>
    <linearGradient x1="0.5" y1="0" x2="0.5" y2="1.0000002" id="gradient_3">
      <stop offset="0%" stop-color="#6B48FF" stop-opacity="0" />
      <stop offset="100%" stop-color="#6B48FF" />
    </linearGradient>
    <linearGradient x1="0.49999994" y1="-0.011538506" x2="0.49999994" y2="1.0115385" id="gradient_4">
      <stop offset="0%" stop-color="#6B48FF" stop-opacity="0" />
      <stop offset="97.0971%" stop-color="#6B48FF" />
    </linearGradient>
    <linearGradient x1="0.49999976" y1="-0.012820482" x2="0.49999976" y2="1.0128206" id="gradient_5">
      <stop offset="0%" stop-color="#6B48FF" stop-opacity="0" />
      <stop offset="97.0971%" stop-color="#6B48FF" />
    </linearGradient>
    <linearGradient x1="0.4999962" y1="0" x2="0.4999962" y2="1.000001" id="gradient_6">
      <stop offset="0%" stop-color="#6B48FF" />
      <stop offset="100%" stop-color="#9E8EE4" />
    </linearGradient>
    <linearGradient x1="0.5" y1="-9.536743E-07" x2="0.5" y2="1" id="gradient_7">
      <stop offset="0%" stop-color="#6B48FF" />
      <stop offset="100%" stop-color="#9E8EE4" />
    </linearGradient>
  </defs>
  <g id="funding_graphic" transform="translate(1.5 1.5)">
    <path d="M278 377.34L278 429.34" id="Shape" fill="none" stroke="#FFFFFF" stroke-width="1.5" stroke-dasharray="20 20" />
    <g id="Group" transform="translate(0 53.339966)">
      <path d="M0 40L0 20C0 14.4772 1.95262 9.76311 5.85786 5.85786C9.76311 1.95262 14.4772 0 20 0L104 0C109.523 0 114.237 1.95262 118.142 5.85786C122.047 9.76311 124 14.4772 124 20L124 100C124 105.523 122.047 110.237 118.142 114.142C114.237 118.047 109.523 120 104 120L20 120C14.4772 120 9.76311 118.047 5.85786 114.142C1.95262 110.237 0 105.523 0 100L0 40Z" id="Rectangle" fill="url(#gradient_1)" fill-rule="evenodd" stroke="none" />
      <path d="M1.5 38.5L1.5 20C1.5 14.8914 3.30617 10.5309 6.91852 6.91852C10.5309 3.30617 14.8914 1.5 20 1.5L104 1.5C109.109 1.5 113.469 3.30617 117.081 6.91852C120.694 10.5309 122.5 14.8914 122.5 20L122.5 100C122.5 105.109 120.694 109.469 117.081 113.081C113.469 116.694 109.109 118.5 104 118.5L20 118.5C14.8914 118.5 10.5309 116.694 6.91852 113.081C3.30617 109.469 1.5 105.109 1.5 100L1.5 38.5Z" id="Rectangle" fill="none" fill-rule="evenodd" stroke="url(#gradient_2)" stroke-width="3" />
    </g>
    <g id="Group" transform="translate(139 429.33997)">
      <path d="M0 40L0 20C0 14.4772 1.95262 9.76311 5.85786 5.85786C9.76311 1.95262 14.4772 0 20 0L258 0C263.523 0 268.237 1.95262 272.142 5.85786C276.047 9.76311 278 14.4772 278 20L278 113C278 118.523 276.047 123.237 272.142 127.142C268.237 131.047 263.523 133 258 133L20 133C14.4772 133 9.76311 131.047 5.85786 127.142C1.95262 123.237 0 118.523 0 113L0 40Z" id="Rectangle" fill="url(#gradient_3)" fill-rule="evenodd" stroke="none" />
      <path d="M1.5 38.5L1.5 20C1.5 14.8914 3.30617 10.5309 6.91852 6.91852C10.5309 3.30617 14.8914 1.5 20 1.5L258 1.5C263.109 1.5 267.469 3.30617 271.081 6.91852C274.694 10.5309 276.5 14.8914 276.5 20L276.5 113C276.5 118.109 274.694 122.469 271.081 126.081C267.469 129.694 263.109 131.5 258 131.5L20 131.5C14.8914 131.5 10.5309 129.694 6.91852 126.081C3.30617 122.469 1.5 118.109 1.5 113L1.5 38.5Z" id="Rectangle" fill="none" fill-rule="evenodd" stroke="url(#gradient_4)" stroke-width="3" />
    </g>
    <g id="Group" transform="translate(143.5 54.839966)">
      <path d="M0 37L0 18.5C0 13.3914 1.80617 9.03088 5.41852 5.41852C9.03087 1.80617 13.3914 0 18.5 0L102.5 0C107.609 0 111.969 1.80617 115.581 5.41852C119.194 9.03088 121 13.3914 121 18.5L121 98.5C121 103.609 119.194 107.969 115.581 111.581C111.969 115.194 107.609 117 102.5 117L18.5 117C13.3914 117 9.03087 115.194 5.41852 111.581C1.80617 107.969 0 103.609 0 98.5L0 37Z" id="Rectangle" fill="none" fill-rule="evenodd" stroke="url(#gradient_2)" stroke-width="3" />
    </g>
    <g id="Group" transform="translate(285.5 54.839966)">
      <path d="M0 37L0 18.5C0 13.3914 1.80617 9.03088 5.41852 5.41852C9.03087 1.80617 13.3914 0 18.5 0L102.5 0C107.609 0 111.969 1.80617 115.581 5.41852C119.194 9.03088 121 13.3914 121 18.5L121 98.5C121 103.609 119.194 107.969 115.581 111.581C111.969 115.194 107.609 117 102.5 117L18.5 117C13.3914 117 9.03087 115.194 5.41852 111.581C1.80617 107.969 0 103.609 0 98.5L0 37Z" id="Rectangle" fill="none" fill-rule="evenodd" stroke="url(#gradient_2)" stroke-width="3" />
    </g>
    <g id="Group" transform="translate(427.5 54.839966)">
      <path d="M0 37L0 18.5C0 13.3914 1.80617 9.03088 5.41852 5.41852C9.03087 1.80617 13.3914 0 18.5 0L102.5 0C107.609 0 111.969 1.80617 115.581 5.41852C119.194 9.03088 121 13.3914 121 18.5L121 98.5C121 103.609 119.194 107.969 115.581 111.581C111.969 115.194 107.609 117 102.5 117L18.5 117C13.3914 117 9.03087 115.194 5.41852 111.581C1.80617 107.969 0 103.609 0 98.5L0 37Z" id="Rectangle" fill="none" fill-rule="evenodd" stroke="url(#gradient_5)" stroke-width="3" />
    </g>
    <path d="M71 202.34L277 310.84" id="Shape" fill="none" stroke="#FFFFFF" stroke-width="1.5" stroke-dasharray="20 20" />
    <path d="M488 202.34L282 310.84" id="Shape" fill="none" stroke="#FFFFFF" stroke-width="1.5" stroke-dasharray="20 20" />
    <path d="M206 201.34L277 310.84" id="Shape" fill="none" stroke="#FFFFFF" stroke-width="1.5" stroke-dasharray="20 20" />
    <path d="M346 202.34L275 311.84" id="Shape" fill="none" stroke="#FFFFFF" stroke-width="1.5" stroke-dasharray="20 20" />
    <path d="M52.3965 106.262L52.3965 116.018C52.3965 117.183 52.3151 118.052 52.1523 118.625C51.9896 119.276 51.7129 119.826 51.3223 120.276C50.5605 121.167 49.5514 121.613 48.2949 121.613C47.3444 121.613 46.4557 121.366 45.6289 120.871L46.7422 118.928C47.2956 119.299 47.8132 119.485 48.2949 119.485C48.972 119.485 49.4408 119.227 49.7012 118.713C49.9746 118.199 50.1113 117.3 50.1113 116.018L50.1113 106.262L52.3965 106.262L52.3965 106.262ZM62.602 111.828L64.809 111.828L64.809 121.34L62.602 121.34L62.602 120.344C61.697 121.19 60.723 121.613 59.6816 121.613C58.3665 121.613 57.2793 121.138 56.4199 120.188C55.5671 119.218 55.1406 118.007 55.1406 116.555C55.1406 115.129 55.5671 113.941 56.4199 112.99C57.2728 112.04 58.3405 111.565 59.623 111.565C60.73 111.565 61.723 112.02 62.602 112.932L62.602 111.828L62.602 111.828ZM57.3867 116.555C57.3867 117.466 57.6309 118.208 58.1191 118.781C58.6204 119.361 59.252 119.651 60.014 119.651C60.827 119.651 61.485 119.371 61.986 118.811C62.488 118.231 62.738 117.496 62.738 116.604C62.738 115.712 62.488 114.976 61.986 114.397C61.485 113.83 60.834 113.547 60.033 113.547C59.278 113.547 58.6465 113.833 58.1387 114.406C57.6374 114.986 57.3867 115.702 57.3867 116.555L57.3867 116.555ZM67.582 111.828L69.789 111.828L69.789 112.707C70.557 111.945 71.423 111.565 72.387 111.565C73.493 111.565 74.356 111.913 74.975 112.61C75.508 113.202 75.775 114.169 75.775 115.51L75.775 121.34L73.568 121.34L73.568 116.028C73.568 115.09 73.438 114.442 73.178 114.084C72.924 113.72 72.462 113.537 71.791 113.537C71.062 113.537 70.544 113.778 70.238 114.26C69.939 114.735 69.789 115.565 69.789 116.75L69.789 121.34L67.582 121.34L67.582 111.828L67.582 111.828Z" id="Shape" fill="#FFFFFF" fill-rule="evenodd" stroke="none" />
    <path d="M239.06 480.64C243.46 480.64 246.28 477.5 246.2 472.9L238.92 472.9L238.92 474.66L243.88 474.66C243.48 477.12 241.8 478.76 239.14 478.76C235.94 478.76 234 476.36 234 473.18C234 469.8 236.04 467.66 238.88 467.66C241.34 467.66 242.92 469.08 243.46 470.92L246.02 470.92C245.14 467.94 242.64 465.68 238.94 465.68C234.76 465.68 231.72 468.9 231.72 473.14C231.72 477.5 234.92 480.64 239.06 480.64L239.06 480.64ZM252.698 480.54C255.198 480.54 257.018 479.12 257.538 476.76L255.538 476.76C255.198 478.14 254.158 478.96 252.658 478.96C250.878 478.96 249.798 477.7 249.638 475.54L257.538 475.54C257.898 472.1 255.798 469.54 252.638 469.54C249.718 469.54 247.578 471.84 247.578 474.98C247.578 478.32 249.638 480.54 252.698 480.54L252.698 480.54ZM252.598 471.06C254.238 471.06 255.298 472.24 255.398 474.2L249.658 474.2C249.877 472.22 250.978 471.06 252.598 471.06L252.598 471.06ZM265.626 478.38C265.206 478.58 264.786 478.66 264.306 478.66C263.226 478.66 262.526 478.14 262.526 476.68L262.526 471.46L265.726 471.46L265.726 469.74L262.526 469.74L262.526 466.6L260.506 466.6L260.506 469.74L258.166 469.74L258.166 471.46L260.506 471.46L260.506 477.14C260.506 479.48 261.866 480.54 263.826 480.54C264.466 480.54 265.006 480.44 265.626 480.16L265.626 478.38L265.626 478.38ZM277.814 478.38C277.394 478.58 276.974 478.66 276.494 478.66C275.414 478.66 274.714 478.14 274.714 476.68L274.714 471.46L277.914 471.46L277.914 469.74L274.714 469.74L274.714 466.6L272.694 466.6L272.694 469.74L270.354 469.74L270.354 471.46L272.694 471.46L272.694 477.14C272.694 479.48 274.054 480.54 276.014 480.54C276.654 480.54 277.194 480.44 277.814 480.16L277.814 478.38L277.814 478.38ZM283.988 480.54C286.988 480.54 289.188 478.18 289.188 475.04C289.188 471.9 286.988 469.54 283.988 469.54C280.988 469.54 278.788 471.9 278.788 475.04C278.788 478.18 280.988 480.54 283.988 480.54L283.988 480.54ZM283.988 478.76C282.248 478.76 280.888 477.36 280.888 475.04C280.888 472.72 282.248 471.34 283.988 471.34C285.728 471.34 287.108 472.72 287.108 475.04C287.108 477.36 285.728 478.76 283.988 478.76L283.988 478.76ZM290.488 475.04C290.488 478.22 292.328 480.54 295.188 480.54C296.688 480.54 297.968 479.78 298.728 478.44L298.728 480.34L300.608 480.34L300.608 465.98L298.588 465.98L298.588 471.56C297.848 470.26 296.608 469.54 295.188 469.54C292.328 469.54 290.488 471.82 290.488 475.04L290.488 475.04ZM292.588 475.04C292.588 472.64 293.828 471.32 295.588 471.32C297.268 471.32 298.588 472.62 298.588 475C298.588 477.34 297.308 478.74 295.588 478.74C293.828 478.74 292.588 477.4 292.588 475.04L292.588 475.04ZM309.836 480.34L311.516 480.34L311.516 473.54C311.516 471.02 309.996 469.54 307.376 469.54C304.896 469.54 303.196 471.12 303.096 473.5L304.936 473.5C304.996 472.02 305.896 471.14 307.376 471.14C308.776 471.14 309.596 472 309.596 473.52L309.596 474.3C308.736 474.2 308.236 474.18 307.616 474.18C304.456 474.18 302.796 475.26 302.796 477.34C302.796 479.28 304.236 480.54 306.436 480.54C307.996 480.54 309.176 479.88 309.836 478.7L309.836 480.34L309.836 480.34ZM304.716 477.28C304.716 476.04 305.716 475.44 307.736 475.44C308.256 475.44 308.816 475.46 309.596 475.56L309.596 476.42C309.596 478.04 308.536 479.1 306.836 479.1C305.536 479.1 304.716 478.38 304.716 477.28L304.716 477.28ZM322.684 469.74L320.644 469.74L317.784 477.82L314.704 469.74L312.524 469.74L316.704 480.2L315.184 484.2L317.384 484.2L322.684 469.74L322.684 469.74Z" id="Shape" fill="#FFFFFF" fill-rule="evenodd" stroke="none" />
    <path d="M196.336 108.401L191.082 108.401L191.082 112.024L196.15 112.024L196.15 114.162L191.082 114.162L191.082 121.34L188.807 121.34L188.807 106.262L196.336 106.262L196.336 108.401L196.336 108.401ZM207.088 117.102L200.271 117.102C200.33 117.883 200.584 118.505 201.033 118.967C201.482 119.423 202.059 119.651 202.762 119.651C203.309 119.651 203.761 119.52 204.119 119.26C204.471 119 204.871 118.518 205.32 117.815L207.176 118.85C206.889 119.338 206.587 119.758 206.268 120.11C205.949 120.455 205.607 120.741 205.242 120.969C204.878 121.19 204.484 121.353 204.061 121.457C203.637 121.561 203.178 121.613 202.684 121.613C201.264 121.613 200.125 121.158 199.266 120.246C198.406 119.328 197.977 118.111 197.977 116.594C197.977 115.09 198.393 113.873 199.227 112.942C200.066 112.024 201.18 111.565 202.566 111.565C203.966 111.565 205.073 112.011 205.887 112.902C206.694 113.788 207.098 115.015 207.098 116.584L207.088 117.102L207.088 117.102ZM204.832 115.305C204.526 114.133 203.787 113.547 202.615 113.547C202.348 113.547 202.098 113.589 201.863 113.674C201.629 113.752 201.414 113.869 201.219 114.026C201.03 114.175 200.867 114.358 200.73 114.572C200.594 114.787 200.49 115.031 200.418 115.305L204.832 115.305L204.832 115.305ZM211.697 104.846L211.697 112.932C212.576 112.02 213.572 111.565 214.686 111.565C215.968 111.565 217.036 112.043 217.889 113C218.742 113.951 219.168 115.136 219.168 116.555C219.168 118.02 218.738 119.231 217.879 120.188C217.026 121.138 215.949 121.613 214.646 121.613C213.546 121.613 212.563 121.19 211.697 120.344L211.697 121.34L209.5 121.34L209.5 104.846L211.697 104.846L211.697 104.846ZM216.922 116.652C216.922 115.741 216.674 114.999 216.18 114.426C215.678 113.84 215.05 113.547 214.295 113.547C213.488 113.547 212.83 113.83 212.322 114.397C211.821 114.957 211.57 115.686 211.57 116.584C211.57 117.509 211.818 118.248 212.312 118.801C212.807 119.367 213.458 119.651 214.266 119.651C215.027 119.651 215.659 119.367 216.16 118.801C216.668 118.228 216.922 117.512 216.922 116.652L216.922 116.652Z" id="Shape" fill="#FFFFFF" fill-rule="evenodd" stroke="none" />
    <path d="M325.279 121.34L328.453 105.129L333.629 116.848L338.99 105.129L341.842 121.34L339.508 121.34L338.053 112.238L333.59 122.033L329.254 112.229L327.633 121.34L325.279 121.34L325.279 121.34ZM351.637 111.828L353.844 111.828L353.844 121.34L351.637 121.34L351.637 120.344C350.732 121.19 349.758 121.613 348.717 121.613C347.402 121.613 346.314 121.138 345.455 120.188C344.602 119.218 344.176 118.007 344.176 116.555C344.176 115.129 344.602 113.941 345.455 112.99C346.308 112.04 347.376 111.565 348.658 111.565C349.765 111.565 350.758 112.02 351.637 112.932L351.637 111.828L351.637 111.828ZM346.422 116.555C346.422 117.466 346.666 118.208 347.154 118.781C347.656 119.361 348.287 119.651 349.049 119.651C349.863 119.651 350.52 119.371 351.021 118.811C351.523 118.231 351.773 117.496 351.773 116.604C351.773 115.712 351.523 114.976 351.021 114.397C350.52 113.83 349.869 113.547 349.068 113.547C348.313 113.547 347.682 113.833 347.174 114.406C346.673 114.986 346.422 115.702 346.422 116.555L346.422 116.555ZM359.791 119.572L355.514 111.828L358.062 111.828L360.973 117.297L363.688 111.828L366.168 111.828L358.59 126.516L356.08 126.516L359.791 119.572L359.791 119.572Z" id="Shape" fill="#FFFFFF" fill-rule="evenodd" stroke="none" />
    <path d="M478.396 106.262L478.396 116.018C478.396 117.183 478.315 118.052 478.152 118.625C477.99 119.276 477.713 119.826 477.322 120.276C476.561 121.167 475.551 121.613 474.295 121.613C473.344 121.613 472.456 121.366 471.629 120.871L472.742 118.928C473.296 119.299 473.813 119.485 474.295 119.485C474.972 119.485 475.441 119.227 475.701 118.713C475.975 118.199 476.111 117.3 476.111 116.018L476.111 106.262L478.396 106.262L478.396 106.262ZM483.787 111.828L483.787 117.287C483.787 118.863 484.409 119.651 485.652 119.651C486.896 119.651 487.518 118.863 487.518 117.287L487.518 111.828L489.715 111.828L489.715 117.336C489.715 118.098 489.62 118.755 489.432 119.309C489.249 119.804 488.934 120.25 488.484 120.647C487.742 121.291 486.798 121.613 485.652 121.613C484.513 121.613 483.572 121.291 482.83 120.647C482.374 120.25 482.052 119.804 481.863 119.309C481.681 118.866 481.59 118.208 481.59 117.336L481.59 111.828L483.787 111.828L483.787 111.828ZM492.488 111.828L494.695 111.828L494.695 112.707C495.464 111.945 496.329 111.565 497.293 111.565C498.4 111.565 499.262 111.913 499.881 112.61C500.415 113.202 500.682 114.169 500.682 115.51L500.682 121.34L498.475 121.34L498.475 116.028C498.475 115.09 498.344 114.442 498.084 114.084C497.83 113.72 497.368 113.537 496.697 113.537C495.968 113.537 495.451 113.778 495.145 114.26C494.845 114.735 494.695 115.565 494.695 116.75L494.695 121.34L492.488 121.34L492.488 111.828L492.488 111.828Z" id="Shape" fill="#FFFFFF" fill-rule="evenodd" stroke="none" />
    <path d="M223.62 17.12L223.62 15.52C226.42 15.34 228.02 13.62 228.02 11.42C228.02 9.3 226.58 8.32 224.4 7.86L222.6 7.48C221.42 7.22 220.36 6.76 220.36 5.48C220.36 4.24 221.34 3.3 222.98 3.3C224.6 3.3 225.72 4.4 225.82 5.94L227.86 5.94C227.7 3.52 225.96 1.92 223.62 1.66L223.62 0L222.22 0L222.22 1.66C219.9 1.94 218.3 3.54 218.3 5.62C218.3 8.04 220.04 8.88 221.86 9.26L223.66 9.66C225.1 9.98 225.86 10.54 225.86 11.68C225.86 13.06 224.58 13.86 222.96 13.86C221 13.86 219.98 12.8 219.88 11.14L217.84 11.14C217.98 13.54 219.56 15.22 222.22 15.5L222.22 17.12L223.62 17.12L223.62 17.12ZM234.012 15.34L234.012 1.82L229.352 1.82L229.352 3.58L231.972 3.58L231.972 15.34L234.012 15.34L234.012 15.34ZM236.574 8.6C236.574 13.08 238.314 15.54 241.554 15.54C244.794 15.54 246.554 13.08 246.554 8.6C246.554 4.12 244.754 1.62 241.554 1.62C238.354 1.62 236.574 4.12 236.574 8.6L236.574 8.6ZM238.654 8.6C238.654 5.22 239.694 3.44 241.554 3.44C243.454 3.44 244.474 5.22 244.474 8.6C244.474 11.96 243.454 13.72 241.554 13.72C239.654 13.72 238.654 11.94 238.654 8.6L238.654 8.6ZM251.277 14.48C251.277 13.14 250.677 12.34 249.577 12.34C248.757 12.34 248.117 12.9 248.117 13.76C248.117 14.5 248.677 15.12 249.437 15.12C249.577 15.12 249.697 15.1 249.877 15.04C249.757 16.02 248.877 16.72 247.577 16.76L247.577 17.9C249.777 17.86 251.277 16.38 251.277 14.48L251.277 14.48ZM252.921 8.6C252.921 13.08 254.661 15.54 257.901 15.54C261.141 15.54 262.901 13.08 262.901 8.6C262.901 4.12 261.101 1.62 257.901 1.62C254.701 1.62 252.921 4.12 252.921 8.6L252.921 8.6ZM255.001 8.6C255.001 5.22 256.041 3.44 257.901 3.44C259.801 3.44 260.821 5.22 260.821 8.6C260.821 11.96 259.801 13.72 257.901 13.72C256.001 13.72 255.001 11.94 255.001 8.6L255.001 8.6ZM264.855 8.6C264.855 13.08 266.595 15.54 269.835 15.54C273.075 15.54 274.835 13.08 274.835 8.6C274.835 4.12 273.035 1.62 269.835 1.62C266.635 1.62 264.855 4.12 264.855 8.6L264.855 8.6ZM266.935 8.6C266.935 5.22 267.975 3.44 269.835 3.44C271.735 3.44 272.755 5.22 272.755 8.6C272.755 11.96 271.735 13.72 269.835 13.72C267.935 13.72 266.935 11.94 266.935 8.6L266.935 8.6ZM276.789 8.6C276.789 13.08 278.529 15.54 281.769 15.54C285.009 15.54 286.769 13.08 286.769 8.6C286.769 4.12 284.969 1.62 281.769 1.62C278.569 1.62 276.789 4.12 276.789 8.6L276.789 8.6ZM278.869 8.6C278.869 5.22 279.909 3.44 281.769 3.44C283.669 3.44 284.689 5.22 284.689 8.6C284.689 11.96 283.669 13.72 281.769 13.72C279.869 13.72 278.869 11.94 278.869 8.6L278.869 8.6ZM293.442 19.2L302.282 0.98L300.282 0.98L291.422 19.2L293.442 19.2L293.442 19.2ZM309.404 15.34L309.404 9.26C309.404 7.48 310.504 6.32 311.904 6.32C313.384 6.32 314.164 7.36 314.164 9.12L314.164 15.34L316.184 15.34L316.184 9.26C316.184 7.48 317.304 6.32 318.684 6.32C320.164 6.32 320.944 7.36 320.944 9.12L320.944 15.34L322.964 15.34L322.964 8.48C322.964 5.96 321.564 4.54 319.384 4.54C317.764 4.54 316.544 5.38 315.804 6.74C315.324 5.34 314.144 4.54 312.584 4.54C311.124 4.54 309.984 5.28 309.264 6.5L309.264 4.74L307.384 4.74L307.384 15.34L309.404 15.34L309.404 15.34ZM330.106 15.54C333.106 15.54 335.306 13.18 335.306 10.04C335.306 6.9 333.106 4.54 330.106 4.54C327.106 4.54 324.906 6.9 324.906 10.04C324.906 13.18 327.106 15.54 330.106 15.54L330.106 15.54ZM330.106 13.76C328.366 13.76 327.006 12.36 327.006 10.04C327.006 7.72 328.366 6.34 330.106 6.34C331.846 6.34 333.226 7.72 333.226 10.04C333.226 12.36 331.846 13.76 330.106 13.76L330.106 13.76Z" id="Shape" fill="#FFFFFF" fill-rule="evenodd" stroke="none" />
    <path d="M219.884 501.515L219.884 504.386C221.036 504.571 221.979 504.952 222.711 505.528C223.443 506.105 224.142 506.988 224.806 508.18L221.949 509.777C221.09 508.214 219.967 507.433 218.58 507.433C217.721 507.433 217.008 507.687 216.441 508.194C215.875 508.702 215.592 509.337 215.592 510.099C215.592 510.792 215.821 511.368 216.28 511.827C216.729 512.277 217.638 512.809 219.005 513.424C220.187 513.961 221.163 514.469 221.935 514.947C222.706 515.416 223.287 515.87 223.678 516.31C224.781 517.501 225.333 518.942 225.333 520.631C225.333 522.291 224.835 523.756 223.839 525.026C222.853 526.285 221.534 527.135 219.884 527.574L219.884 530.607L217.32 530.607L217.32 527.662C215.406 527.35 213.946 526.691 212.94 525.685C211.935 524.679 211.192 523.126 210.714 521.027L213.937 520.353C214.376 521.837 214.913 522.897 215.548 523.531C216.212 524.137 217.096 524.44 218.199 524.44C219.273 524.44 220.172 524.093 220.895 523.4C221.607 522.716 221.964 521.832 221.964 520.748C221.964 519.781 221.666 519.005 221.07 518.419C220.768 518.136 220.318 517.819 219.723 517.467C219.137 517.106 218.385 516.715 217.467 516.295C215.572 515.445 214.327 514.664 213.731 513.951C212.784 512.887 212.311 511.612 212.311 510.128C212.311 509.425 212.423 508.771 212.647 508.165C212.872 507.56 213.194 507.013 213.614 506.525C214.044 506.027 214.571 505.597 215.196 505.236C215.821 504.874 216.529 504.591 217.32 504.386L217.32 501.515L219.884 501.515L219.884 501.515ZM235.646 507.916L231.734 507.916L233.609 504.723L239.059 504.723L239.059 527.34L235.646 527.34L235.646 507.916L235.646 507.916ZM251.173 524.132L259.596 524.132L259.596 527.34L244.405 527.34L252.257 517.833C253.028 516.886 253.673 516.066 254.19 515.372C254.718 514.679 255.118 514.098 255.392 513.629C255.948 512.711 256.227 511.886 256.227 511.153C256.227 510.099 255.855 509.215 255.113 508.502C254.371 507.789 253.453 507.433 252.359 507.433C250.074 507.433 248.766 508.785 248.434 511.49L245.035 511.49C245.582 506.725 247.989 504.342 252.257 504.342C254.317 504.342 256.046 504.996 257.442 506.305C258.849 507.613 259.552 509.235 259.552 511.168C259.552 512.399 259.225 513.605 258.57 514.786C258.238 515.402 257.75 516.134 257.105 516.984C256.471 517.823 255.665 518.819 254.688 519.972L251.173 524.132L251.173 524.132ZM263.448 515.885C263.448 512.281 264.288 509.405 265.968 507.257C267.472 505.314 269.293 504.342 271.432 504.342C273.57 504.342 275.392 505.314 276.896 507.257C278.575 509.405 279.415 512.33 279.415 516.031C279.415 519.723 278.575 522.643 276.896 524.791C275.392 526.735 273.575 527.706 271.446 527.706C269.317 527.706 267.491 526.735 265.968 524.791C264.288 522.643 263.448 519.674 263.448 515.885L263.448 515.885ZM266.803 515.9C266.803 518.409 267.237 520.494 268.106 522.154C268.976 523.785 270.084 524.601 271.432 524.601C272.77 524.601 273.878 523.785 274.757 522.154C275.636 520.533 276.075 518.487 276.075 516.017C276.075 513.546 275.636 511.495 274.757 509.864C273.878 508.243 272.77 507.433 271.432 507.433C270.104 507.433 269 508.243 268.121 509.864C267.242 511.476 266.803 513.487 266.803 515.9L266.803 515.9ZM284.806 523.107L287.735 524.249L283.561 532.613L281.334 531.691L284.806 523.107L284.806 523.107ZM291.222 515.885C291.222 512.281 292.062 509.405 293.741 507.257C295.245 505.314 297.066 504.342 299.205 504.342C301.344 504.342 303.165 505.314 304.669 507.257C306.349 509.405 307.188 512.33 307.188 516.031C307.188 519.723 306.349 522.643 304.669 524.791C303.165 526.735 301.349 527.706 299.22 527.706C297.091 527.706 295.265 526.735 293.741 524.791C292.062 522.643 291.222 519.674 291.222 515.885L291.222 515.885ZM294.576 515.9C294.576 518.409 295.011 520.494 295.88 522.154C296.749 523.785 297.857 524.601 299.205 524.601C300.543 524.601 301.651 523.785 302.53 522.154C303.409 520.533 303.849 518.487 303.849 516.017C303.849 513.546 303.409 511.495 302.53 509.864C301.651 508.243 300.543 507.433 299.205 507.433C297.877 507.433 296.773 508.243 295.895 509.864C295.016 511.476 294.576 513.487 294.576 515.9L294.576 515.9ZM309.737 515.885C309.737 512.281 310.577 509.405 312.257 507.257C313.761 505.314 315.582 504.342 317.721 504.342C319.859 504.342 321.681 505.314 323.185 507.257C324.864 509.405 325.704 512.33 325.704 516.031C325.704 519.723 324.864 522.643 323.185 524.791C321.681 526.735 319.864 527.706 317.735 527.706C315.606 527.706 313.78 526.735 312.257 524.791C310.577 522.643 309.737 519.674 309.737 515.885L309.737 515.885ZM313.092 515.9C313.092 518.409 313.526 520.494 314.396 522.154C315.265 523.785 316.373 524.601 317.721 524.601C319.059 524.601 320.167 523.785 321.046 522.154C321.925 520.533 322.364 518.487 322.364 516.017C322.364 513.546 321.925 511.495 321.046 509.864C320.167 508.243 319.059 507.433 317.721 507.433C316.393 507.433 315.289 508.243 314.41 509.864C313.531 511.476 313.092 513.487 313.092 515.9L313.092 515.9ZM328.253 515.885C328.253 512.281 329.093 509.405 330.772 507.257C332.276 505.314 334.098 504.342 336.236 504.342C338.375 504.342 340.196 505.314 341.7 507.257C343.38 509.405 344.22 512.33 344.22 516.031C344.22 519.723 343.38 522.643 341.7 524.791C340.196 526.735 338.38 527.706 336.251 527.706C334.122 527.706 332.296 526.735 330.772 524.791C329.093 522.643 328.253 519.674 328.253 515.885L328.253 515.885ZM331.607 515.9C331.607 518.409 332.042 520.494 332.911 522.154C333.78 523.785 334.889 524.601 336.236 524.601C337.574 524.601 338.683 523.785 339.562 522.154C340.44 520.533 340.88 518.487 340.88 516.017C340.88 513.546 340.44 511.495 339.562 509.864C338.683 508.243 337.574 507.433 336.236 507.433C334.908 507.433 333.805 508.243 332.926 509.864C332.047 511.476 331.607 513.487 331.607 515.9L331.607 515.9Z" id="Shape" fill="#FFFFFF" fill-rule="evenodd" stroke="none" />
    <path d="M50 7.83997L187 7.83997" id="Line" fill="none" fill-rule="evenodd" stroke="#FFFFFF" stroke-width="1" />
    <path d="M366 6.83997L503 6.83997" id="Line" fill="none" fill-rule="evenodd" stroke="#FFFFFF" stroke-width="1" />
    <g id="Group" transform="translate(204 237.33997)">
      <path d="M0 73C0 32.6832 32.6832 0 73 0C113.317 0 146 32.6832 146 73C146 113.317 113.317 146 73 146C32.6832 146 0 113.317 0 73Z" id="Circle" fill="#FFFFFF" fill-rule="evenodd" stroke="none" />
      <path d="M0.5 73C0.5 32.9594 32.9594 0.5 73 0.5C113.041 0.5 145.5 32.9594 145.5 73C145.5 113.041 113.041 145.5 73 145.5C32.9594 145.5 0.5 113.041 0.5 73Z" id="Circle" fill="none" fill-rule="evenodd" stroke="#170953" stroke-opacity="0.2901961" stroke-width="1" />
    </g>
    <path d="M287.934 306.602L287.934 324.676C287.934 325.276 287.7 325.851 287.285 326.275C286.87 326.7 286.306 326.938 285.719 326.938L282.217 326.938C281.778 326.938 281.35 327.07 280.985 327.319C280.621 327.567 280.336 327.92 280.169 328.334C280.001 328.747 279.957 329.202 280.043 329.641C280.128 330.08 280.339 330.484 280.65 330.8L295.218 345.677C295.528 345.993 295.923 346.209 296.353 346.296C296.782 346.384 297.228 346.339 297.633 346.168C298.038 345.996 298.384 345.706 298.627 345.334C298.871 344.962 299 344.524 299 344.076L299 306.602C299 306.002 298.767 305.427 298.351 305.002C297.936 304.578 297.373 304.34 296.785 304.34L290.14 304.34C289.554 304.342 288.993 304.582 288.58 305.005C288.166 305.429 287.934 306.003 287.934 306.602L287.934 306.602Z" id="Shape" fill="url(#gradient_6)" stroke="none" />
    <path d="M275.698 306.042L268.81 306.042C268.2 306.042 267.614 305.804 267.183 305.38C266.751 304.956 266.509 304.381 266.509 303.781L266.509 296.995C266.509 296.396 266.751 295.82 267.183 295.396C267.614 294.972 268.2 294.734 268.81 294.734L272.441 294.734C272.894 294.731 273.336 294.598 273.711 294.35C274.087 294.102 274.38 293.751 274.554 293.34C274.728 292.93 274.775 292.478 274.689 292.041C274.602 291.605 274.387 291.203 274.07 290.886L258.93 276.003C258.609 275.687 258.199 275.471 257.753 275.384C257.306 275.296 256.844 275.341 256.423 275.511C256.003 275.682 255.643 275.971 255.39 276.343C255.136 276.714 255.001 277.151 255 277.598L255 315.078C255 315.678 255.243 316.253 255.674 316.678C256.106 317.102 256.691 317.34 257.302 317.34L275.698 317.34C276.309 317.34 276.894 317.102 277.326 316.678C277.757 316.253 278 315.678 278 315.078L278 308.293C277.997 307.695 277.753 307.123 277.322 306.701C276.89 306.279 276.307 306.042 275.698 306.042L275.698 306.042Z" id="Shape" fill="url(#gradient_7)" stroke="none" />
    <path d="M221.5 310.34C221.5 279.688 246.348 254.84 277 254.84C307.652 254.84 332.5 279.688 332.5 310.34C332.5 340.992 307.652 365.84 277 365.84C246.348 365.84 221.5 340.992 221.5 310.34Z" id="Circle" fill="none" fill-rule="evenodd" stroke="#170953" stroke-opacity="0.2" stroke-width="1" />
  </g>
</svg>