<svg width="117" height="287" viewBox="0 0 117 287" fill="none" xmlns="http://www.w3.org/2000/svg">
<path d="M60.6146 271.296V148.341C60.6146 144.26 62.2522 140.347 65.1671 137.461C68.082 134.576 72.0354 132.955 76.1577 132.955H100.735C103.811 132.957 106.819 132.056 109.377 130.366C111.935 128.675 113.929 126.271 115.107 123.458C116.284 120.646 116.592 117.55 115.991 114.564C115.39 111.578 113.908 108.835 111.732 106.683L9.49722 5.48065C7.32344 3.32642 4.55286 1.85907 1.53618 1.2644C-1.4805 0.669708 -4.60762 0.974457 -7.44926 2.13998C-10.2909 3.30554 -12.7193 5.27945 -14.427 7.81192C-16.1347 10.3444 -17.045 13.3215 -17.0426 16.3664V271.296C-17.0426 275.376 -15.405 279.29 -12.4901 282.175C-9.57523 285.061 -5.62177 286.682 -1.49949 286.682H45.1298C49.242 286.667 53.1805 285.039 56.0828 282.155C58.9851 279.271 60.6146 275.366 60.6146 271.296Z" fill="url(#paint0_linear_3_14)"/>
<defs>
<linearGradient id="paint0_linear_3_14" x1="49.624" y1="286.682" x2="49.624" y2="0.968079" gradientUnits="userSpaceOnUse">
<stop stop-color="#6B48FF"/>
<stop offset="1" stop-color="#6B48FF" stop-opacity="0"/>
</linearGradient>
</defs>
</svg>
