<svg width="189" height="60" viewBox="0 0 189 60" fill="none" xmlns="http://www.w3.org/2000/svg">
<g clip-path="url(#clip0_11_394)">
<path d="M28.3264 27.2043V42.1191C28.3264 42.6141 28.1273 43.0889 27.7728 43.4389C27.4184 43.7889 26.9376 43.9855 26.4364 43.9855H23.4478C23.0738 43.9852 22.7081 44.0946 22.397 44.2996C22.0859 44.5047 21.8435 44.7963 21.7003 45.1375C21.5571 45.4787 21.5197 45.8542 21.5927 46.2165C21.6658 46.5787 21.846 46.9114 22.1106 47.1724L34.5421 59.4486C34.8065 59.71 35.1433 59.888 35.5102 59.9601C35.877 60.0322 36.2572 59.9953 36.6028 59.8539C36.9483 59.7125 37.2436 59.473 37.4513 59.1659C37.6589 58.8587 37.7696 58.4975 37.7693 58.1282V27.2043C37.7693 26.7093 37.5702 26.2346 37.2157 25.8845C36.8613 25.5345 36.3806 25.3379 35.8793 25.3379H30.2093C29.7093 25.3397 29.2304 25.5372 28.8774 25.887C28.5245 26.2368 28.3264 26.7105 28.3264 27.2043Z" fill="#6B48FF"/>
<path d="M16.9958 25.3384H11.34C10.8387 25.3384 10.358 25.1418 10.0036 24.7918C9.64913 24.4417 9.45 23.967 9.45 23.472V17.8728C9.45 17.3778 9.64913 16.9031 10.0036 16.5531C10.358 16.2031 10.8387 16.0064 11.34 16.0064H14.3215C14.6931 16.0044 15.0559 15.8943 15.3644 15.6898C15.673 15.4853 15.9137 15.1956 16.0564 14.8567C16.1991 14.5179 16.2374 14.145 16.1667 13.7848C16.096 13.4245 15.9192 13.0928 15.6587 12.8312L3.22718 0.550323C2.96313 0.289286 2.62667 0.111388 2.26029 0.0391018C1.89391 -0.0331842 1.51405 0.00338591 1.16871 0.144192C0.823365 0.284998 0.528031 0.523722 0.320016 0.830205C0.112001 1.13669 0.000639593 1.49718 0 1.86613L0 32.7947C0 33.2897 0.199124 33.7644 0.553568 34.1144C0.908012 34.4644 1.38874 34.6611 1.89 34.6611H16.9958C17.4971 34.6611 17.9778 34.4644 18.3323 34.1144C18.6867 33.7644 18.8858 33.2897 18.8858 32.7947V27.1955C18.8833 26.7021 18.6831 26.2298 18.3289 25.8818C17.9748 25.5338 17.4955 25.3384 16.9958 25.3384Z" fill="#6B48FF"/>
<path d="M75.1275 14.2119V18.4976H65.9563V45.7937H61.1132V18.4976H51.9325V14.2119H75.1275Z" fill="#252728"/>
<path d="M95.3222 42.3127H95.9175V45.7865H93.8149C91.5012 45.7865 90.0703 44.8533 89.5222 42.9869C87.7897 45.152 85.2933 46.2345 82.0331 46.2345C79.7178 46.2345 77.8452 45.6854 76.4151 44.5874C74.985 43.4893 74.2691 41.8733 74.2675 39.7394C74.2675 37.6957 74.9676 36.0867 76.3678 34.9124C77.768 33.7382 79.6257 33.0468 81.941 32.8384L88.9292 32.1618V31.028C88.9292 29.5847 88.541 28.4718 87.7645 27.6895C86.988 26.9072 85.8855 26.5183 84.457 26.523C81.8079 26.523 80.2549 27.845 79.7982 30.4891H75.1818C75.3945 28.2043 76.3214 26.3496 77.9625 24.9249C79.6037 23.5002 81.7653 22.7863 84.4476 22.7832C87.1566 22.7832 89.3568 23.5049 91.0484 24.9482C92.7399 26.3916 93.5849 28.4812 93.5834 31.217V40.4626C93.5865 41.6976 94.1661 42.3143 95.3222 42.3127ZM88.9292 37.1265V35.4607L83.4955 36.002C82.0937 36.1233 80.9826 36.4841 80.162 37.0845C79.7648 37.3655 79.4443 37.7392 79.2291 38.1724C79.0139 38.6056 78.9107 39.0846 78.9288 39.5668C78.9288 41.6105 80.1927 42.6323 82.7206 42.6323C84.2771 42.6602 85.8003 42.185 87.0581 41.2792C88.3055 40.3755 88.9292 38.9913 88.9292 37.1265Z" fill="#252728"/>
<path d="M110.487 22.7832C113.593 22.7832 116.136 23.8657 118.116 26.0307C120.095 28.1958 121.084 31.0373 121.083 34.5555C121.083 38.1048 120.078 40.9386 118.068 43.0569C116.059 45.1753 113.532 46.2353 110.487 46.2368C107.411 46.2368 105.049 45.2142 103.4 43.1689V54.8059H98.7525V23.2335H102.533L102.944 26.2664H103.263C105.004 23.9443 107.413 22.7832 110.487 22.7832ZM109.802 42.2264C111.782 42.2264 113.38 41.5203 114.598 40.108C115.815 38.6958 116.424 36.8465 116.424 34.5602C116.424 32.2427 115.815 30.3709 114.598 28.9446C113.38 27.5184 111.782 26.8037 109.802 26.8006C107.854 26.8006 106.301 27.5075 105.143 28.9213C103.985 30.3351 103.407 32.2147 103.407 34.5602C103.407 36.8449 103.993 38.6942 105.167 40.108C106.34 41.5218 107.885 42.2279 109.802 42.2264Z" fill="#252728"/>
<path d="M124.92 45.7874V13.7646H129.578V45.7874H124.92Z" fill="#252728"/>
<path d="M136.567 19.895C136.17 19.9002 135.777 19.8248 135.411 19.6735C135.045 19.5222 134.715 19.2982 134.44 19.0155C134.158 18.7518 133.933 18.4338 133.78 18.0811C133.627 17.7284 133.549 17.3485 133.55 16.9648C133.543 16.5798 133.619 16.1978 133.772 15.844C133.926 15.4901 134.154 15.1724 134.44 14.9117C134.722 14.6412 135.054 14.4282 135.419 14.2848C135.784 14.1415 136.174 14.0707 136.567 14.0765C136.948 14.0729 137.327 14.1449 137.68 14.2884C138.033 14.4319 138.353 14.6438 138.622 14.9117C138.903 15.1756 139.125 15.4945 139.275 15.848C139.424 16.2015 139.497 16.5818 139.489 16.9648C139.492 17.3466 139.416 17.7249 139.267 18.0773C139.118 18.4296 138.899 18.7487 138.622 19.0155C138.36 19.2954 138.042 19.5182 137.688 19.6696C137.335 19.8211 136.952 19.8979 136.567 19.895ZM134.237 45.7913V23.2335H138.896V45.7866L134.237 45.7913Z" fill="#252728"/>
<path d="M143.555 45.7865V23.2335H147.755L148.214 25.9397H148.533C150.108 23.8354 152.331 22.7832 155.202 22.7832C157.788 22.7832 159.859 23.5725 161.413 25.1512C162.968 26.7299 163.744 28.947 163.742 31.8026V45.7865H159.084V32.7964C159.084 30.8103 158.604 29.314 157.645 28.3077C156.686 27.3014 155.43 26.7975 153.877 26.796C153.128 26.7761 152.383 26.9081 151.687 27.1838C150.992 27.4594 150.362 27.8729 149.834 28.3987C148.752 29.4641 148.212 31.0498 148.214 33.1557V45.7865H143.555Z" fill="#252728"/>
<path d="M189 34.1943C189 34.4042 188.969 34.9004 188.908 35.6827H172.009C172.132 37.7295 172.787 39.3759 173.975 40.6217C175.162 41.8675 176.745 42.4896 178.723 42.4881C181.799 42.4881 183.702 41.3309 184.433 39.0166H188.908C188.421 41.2702 187.279 43.0363 185.482 44.3148C183.685 45.5933 181.432 46.2325 178.723 46.2325C175.405 46.2325 172.695 45.1803 170.594 43.076C168.493 40.9716 167.442 38.1899 167.442 34.7309C167.442 31.1225 168.501 28.228 170.617 26.0475C172.734 23.8669 175.375 22.7781 178.541 22.7813C181.524 22.7813 184.014 23.758 186.009 25.7115C188.005 27.665 189.002 30.4926 189 34.1943ZM178.541 26.5257C176.774 26.5257 175.312 27.0825 174.156 28.1961C172.987 29.3312 172.245 30.8268 172.054 32.4352H184.478C184.447 30.6932 183.884 29.2724 182.789 28.1728C181.694 27.0732 180.278 26.5242 178.541 26.5257Z" fill="#252728"/>
</g>
<defs>
<clipPath id="clip0_11_394">
<rect width="189" height="60" fill="white"/>
</clipPath>
</defs>
</svg>
