<svg width="115" height="287" viewBox="0 0 115 287" fill="none" xmlns="http://www.w3.org/2000/svg">
<path d="M56.3879 16.3116V139.266C56.3879 143.347 54.7503 147.26 51.8354 150.146C48.9205 153.031 44.9671 154.652 40.8448 154.652H16.2672C13.1913 154.65 10.1839 155.551 7.62557 157.242C5.06728 158.932 3.07318 161.336 1.89575 164.149C0.718326 166.962 0.4105 170.057 1.01125 173.044C1.61199 176.03 3.09429 178.772 5.2705 180.924L107.505 282.127C109.679 284.281 112.45 285.748 115.466 286.343C118.483 286.938 121.61 286.633 124.452 285.467C127.293 284.302 129.722 282.328 131.429 279.795C133.137 277.263 134.047 274.286 134.045 271.241V16.3116C134.045 12.231 132.407 8.31744 129.493 5.43198C126.578 2.54652 122.624 0.925476 118.502 0.925476H71.8727C67.7605 0.940741 63.822 2.56851 60.9197 5.45232C58.0174 8.33613 56.3878 12.2409 56.3879 16.3116Z" fill="url(#paint0_linear_3_12)"/>
<defs>
<linearGradient id="paint0_linear_3_12" x1="67.3785" y1="0.925476" x2="67.3785" y2="286.639" gradientUnits="userSpaceOnUse">
<stop stop-color="#6B48FF"/>
<stop offset="1" stop-color="#6B48FF" stop-opacity="0"/>
</linearGradient>
</defs>
</svg>
