<svg width="163" height="52" viewBox="0 0 163 52" fill="none" xmlns="http://www.w3.org/2000/svg">
<g clip-path="url(#clip0_2_3)">
<path d="M20.2226 37.6215C19.8019 37.6211 19.3903 37.7447 19.0398 37.9768C18.6893 38.209 18.4155 38.5396 18.2537 38.9272C18.0918 39.3148 18.0494 39.7416 18.1321 40.1533L18.6223 40.0549L18.1321 40.1533C18.2147 40.565 18.4185 40.9426 18.717 41.2385L29.4379 51.8775C29.438 51.8776 29.438 51.8777 29.4381 51.8777C29.7362 52.1738 30.1157 52.3751 30.5282 52.4566C30.9409 52.5381 31.3687 52.4964 31.7576 52.3365L31.5675 51.874L31.7576 52.3365C32.1466 52.1765 32.4796 51.9054 32.7141 51.5568C32.9486 51.2082 33.0739 50.7979 33.0735 50.378M20.2226 37.6215L20.2222 38.1215V37.6215H20.2226ZM20.2226 37.6215H22.7996C23.1006 37.6215 23.3884 37.5028 23.6 37.2928C23.8115 37.0829 23.9296 36.7991 23.9296 36.5039V23.5777C23.9296 23.0162 24.1539 22.4784 24.552 22.0818C24.95 21.6854 25.4894 21.4623 26.0517 21.4602L26.0535 21.4602L30.9435 21.4602C31.5072 21.4602 32.0486 21.6823 32.4483 22.079C32.8482 22.4759 33.0735 23.0149 33.0735 23.5777V50.378M33.0735 50.378L32.5735 50.3784H33.0735V50.378Z" fill="white" stroke="black"/>
<path d="M12.3513 14.3725L12.354 14.3725C12.772 14.3703 13.1803 14.2458 13.5279 14.0143C13.8756 13.7827 14.1474 13.4542 14.3087 13.0694C14.47 12.6845 14.5135 12.2607 14.4334 11.8512C14.3534 11.4417 14.1536 11.0652 13.8597 10.7687L13.8568 10.7658L3.13562 0.122505C3.13557 0.122461 3.13553 0.122418 3.13549 0.122375C2.83769 -0.173425 2.4587 -0.374588 2.04659 -0.456296C1.63444 -0.538012 1.20708 -0.496705 0.818364 -0.337435C0.429608 -0.17815 0.0965303 0.0921579 -0.138355 0.439929C-0.373271 0.787746 -0.499276 1.19726 -0.5 1.61672V1.61758V28.4223C-0.5 28.9852 -0.27465 29.5242 0.125221 29.921C0.524962 30.3177 1.06632 30.5399 1.63 30.5399H14.6578C15.2215 30.5399 15.7628 30.3177 16.1626 29.921C16.5624 29.5242 16.7878 28.9852 16.7878 28.4223L16.7878 23.5697L16.7878 23.5672C16.7849 23.0062 16.5583 22.4699 16.1588 22.0753C15.7594 21.6809 15.2196 21.4602 14.6578 21.4602H9.78C9.47907 21.4602 9.19124 21.3416 8.97961 21.1316C8.76811 20.9217 8.65 20.6378 8.65 20.3427V15.49C8.65 15.1949 8.76811 14.9111 8.97961 14.7012C9.19124 14.4912 9.47907 14.3725 9.78 14.3725L12.3513 14.3725Z" fill="white" stroke="black"/>
<path d="M64.7925 12.3176V16.0319H56.8829V39.6885H52.706V16.0319H44.7883V12.3176H64.7925Z" fill="white"/>
<path d="M82.209 36.6717H82.7225V39.6824H80.9091C78.9137 39.6824 77.6797 38.8736 77.207 37.2561C75.7128 39.1324 73.5599 40.0706 70.7481 40.0706C68.7514 40.0706 67.1363 39.5948 65.9029 38.6431C64.6696 37.6915 64.0522 36.2909 64.0508 34.4415C64.0508 32.6703 64.6546 31.2759 65.8622 30.2582C67.0697 29.2405 68.6719 28.6413 70.6686 28.4607L76.6956 27.8743V26.8917C76.6956 25.6408 76.3607 24.6763 75.6911 23.9983C75.0214 23.3203 74.0706 22.9833 72.8386 22.9873C70.5539 22.9873 69.2145 24.1331 68.8206 26.4246H64.8394C65.0227 24.4444 65.8221 22.837 67.2375 21.6023C68.6529 20.3676 70.5172 19.7489 72.8304 19.7462C75.1668 19.7462 77.0644 20.3716 78.5232 21.6225C79.9821 22.8734 80.7108 24.6844 80.7094 27.0554V35.0683C80.7122 36.1386 81.212 36.6731 82.209 36.6717ZM76.6956 32.177V30.7333L72.0093 31.2024C70.8004 31.3075 69.8421 31.6203 69.1344 32.1406C68.7919 32.3841 68.5155 32.708 68.3299 33.0835C68.1443 33.4589 68.0553 33.8741 68.0708 34.2919C68.0708 36.0631 69.1609 36.9487 71.341 36.9487C72.6834 36.9729 73.9971 36.5611 75.0819 35.776C76.1577 34.9929 76.6956 33.7932 76.6956 32.177Z" fill="white"/>
<path d="M95.2878 19.7462C97.9664 19.7462 100.159 20.6843 101.867 22.5607C103.574 24.437 104.427 26.8997 104.426 29.9488C104.426 33.0248 103.559 35.4808 101.826 37.3167C100.093 39.1526 97.9134 40.0713 95.2878 40.0726C92.635 40.0726 90.5975 39.1863 89.1753 37.4138V47.4992H85.1675V20.1364H88.4275L88.782 22.7649H89.0571C90.5594 20.7524 92.6363 19.7462 95.2878 19.7462ZM94.6969 36.5969C96.4043 36.5969 97.783 35.9849 98.833 34.761C99.883 33.5371 100.408 31.9343 100.408 29.9529C100.408 27.9444 99.883 26.3221 98.833 25.0861C97.783 23.85 96.4043 23.2306 94.6969 23.2279C93.0166 23.2279 91.6773 23.8406 90.679 25.0659C89.6806 26.2911 89.1814 27.9201 89.1814 29.9529C89.1814 31.933 89.6874 33.5357 90.6993 34.761C91.7113 35.9863 93.0438 36.5983 94.6969 36.5969Z" fill="white"/>
<path d="M107.735 39.6824V11.9294H111.753V39.6824H107.735Z" fill="white"/>
<path d="M117.78 17.243C117.438 17.2475 117.098 17.1822 116.783 17.0511C116.468 16.9199 116.183 16.7258 115.946 16.4808C115.702 16.2522 115.509 15.9766 115.377 15.671C115.244 15.3653 115.177 15.0361 115.178 14.7035C115.172 14.3699 115.237 14.0388 115.37 13.7321C115.502 13.4255 115.699 13.1501 115.946 12.9242C116.189 12.6897 116.475 12.5051 116.79 12.3809C117.105 12.2567 117.441 12.1953 117.78 12.2003C118.109 12.1972 118.436 12.2596 118.74 12.384C119.044 12.5083 119.321 12.692 119.552 12.9242C119.795 13.1529 119.986 13.4293 120.115 13.7356C120.244 14.042 120.307 14.3716 120.3 14.7035C120.302 15.0344 120.237 15.3623 120.109 15.6677C119.98 15.973 119.791 16.2496 119.552 16.4808C119.327 16.7233 119.052 16.9165 118.747 17.0477C118.442 17.179 118.112 17.2455 117.78 17.243ZM115.771 39.6864V20.1364H119.789V39.6824L115.771 39.6864Z" fill="white"/>
<path d="M123.807 39.6824V20.1364H127.429L127.825 22.4818H128.1C129.458 20.658 131.375 19.7462 133.851 19.7462C136.082 19.7462 137.867 20.4302 139.208 21.7984C140.549 23.1666 141.218 25.0881 141.217 27.5629V39.6824H137.199V28.4243C137.199 26.7029 136.785 25.4062 135.958 24.5341C135.131 23.662 134.048 23.2252 132.708 23.2239C132.063 23.2067 131.42 23.3211 130.82 23.56C130.221 23.7989 129.677 24.1573 129.222 24.6129C128.289 25.5363 127.823 26.9105 127.825 28.7357V39.6824H123.807Z" fill="white"/>
<path d="M163 29.6354C163 29.8174 162.974 30.2474 162.921 30.9254H148.346C148.452 32.6993 149.017 34.1261 150.042 35.2058C151.066 36.2856 152.431 36.8247 154.137 36.8234C156.79 36.8234 158.431 35.8205 159.062 33.8148H162.921C162.501 35.7679 161.516 37.2985 159.966 38.4066C158.416 39.5146 156.473 40.0686 154.137 40.0686C151.275 40.0686 148.938 39.1567 147.126 37.3329C145.314 35.5091 144.408 33.0983 144.408 30.1005C144.408 26.9732 145.321 24.4647 147.146 22.5748C148.972 20.685 151.25 19.7415 153.98 19.7441C156.553 19.7441 158.7 20.5907 160.421 22.2837C162.142 23.9767 163.001 26.4273 163 29.6354ZM153.98 22.9893C152.456 22.9893 151.195 23.4719 150.198 24.437C149.19 25.4208 148.55 26.717 148.385 28.1109H159.1C159.073 26.6012 158.587 25.3698 157.643 24.4168C156.699 23.4638 155.478 22.988 153.98 22.9893Z" fill="white"/>
</g>
<defs>
<clipPath id="clip0_2_3">
<rect width="163" height="52" fill="white"/>
</clipPath>
</defs>
</svg>
