<svg width="21" height="11" viewBox="0 0 21 11" fill="none" xmlns="http://www.w3.org/2000/svg">
<path fill-rule="evenodd" clip-rule="evenodd" d="M20.0234 10.6484C19.5963 11.0755 18.9037 11.0755 18.4766 10.6484L10.5 2.67186L2.52335 10.6484C2.09621 11.0755 1.40379 11.0755 0.976643 10.6484C0.549497 10.2213 0.549497 9.52874 0.976643 9.10161L9.72665 0.35165C10.1538 -0.0754963 10.8462 -0.0754963 11.2734 0.35165L20.0234 9.10161C20.4505 9.52874 20.4505 10.2213 20.0234 10.6484Z" fill="#22282F"/>
<path fill-rule="evenodd" clip-rule="evenodd" d="M20.0234 10.6484C19.5963 11.0755 18.9037 11.0755 18.4766 10.6484L9.72665 1.89836C9.2995 1.47121 9.2995 0.778795 9.72665 0.35165C10.1538 -0.0754963 10.8462 -0.0754963 11.2734 0.35165L20.0234 9.10161C20.4505 9.52874 20.4505 10.2213 20.0234 10.6484Z" fill="#22282F"/>
</svg>
