<svg width="21" height="11" viewBox="0 0 21 11" fill="none" xmlns="http://www.w3.org/2000/svg">
<path fill-rule="evenodd" clip-rule="evenodd" d="M0.976599 0.351598C1.40373 -0.0755328 2.09626 -0.0755328 2.5234 0.351598L10.5 8.32814L18.4766 0.351598C18.9038 -0.0755328 19.5962 -0.0755328 20.0234 0.351598C20.4505 0.77873 20.4505 1.47126 20.0234 1.89839L11.2734 10.6484C10.8462 11.0755 10.1538 11.0755 9.72664 10.6484L0.976599 1.89839C0.549467 1.47126 0.549467 0.77873 0.976599 0.351598Z" fill="#22282F"/>
<path fill-rule="evenodd" clip-rule="evenodd" d="M0.976598 0.351598C1.40373 -0.0755328 2.09626 -0.0755328 2.52339 0.351598L11.2734 9.10164C11.7005 9.52879 11.7005 10.2212 11.2734 10.6484C10.8462 11.0755 10.1538 11.0755 9.72664 10.6484L0.976598 1.89839C0.549467 1.47126 0.549467 0.77873 0.976598 0.351598Z" fill="#22282F"/>
</svg>
