<svg width="649" height="465" viewBox="0 0 649 465" fill="none" xmlns="http://www.w3.org/2000/svg">
<rect x="212" y="146" width="311" height="252" rx="15" fill="white"/>
<mask id="mask0_24_499" style="mask-type:alpha" maskUnits="userSpaceOnUse" x="290" y="179" width="179" height="2">
<rect x="290.139" y="179.666" width="178.861" height="1.06111" fill="#EDEDED"/>
</mask>
<g mask="url(#mask0_24_499)">
<rect x="290.139" y="179.666" width="178.861" height="1.06111" fill="#E8E9EB"/>
</g>
<mask id="mask1_24_499" style="mask-type:alpha" maskUnits="userSpaceOnUse" x="290" y="233" width="179" height="2">
<rect x="290.139" y="233.783" width="178.861" height="1.06111" fill="#EDEDED"/>
</mask>
<g mask="url(#mask1_24_499)">
<rect x="290.139" y="233.783" width="178.861" height="1.06111" fill="#E8E9EB"/>
</g>
<mask id="mask2_24_499" style="mask-type:alpha" maskUnits="userSpaceOnUse" x="290" y="287" width="179" height="2">
<rect x="290.139" y="287.899" width="178.861" height="1.06111" fill="#EDEDED"/>
</mask>
<g mask="url(#mask2_24_499)">
<rect x="290.139" y="287.899" width="178.861" height="1.06111" fill="#E8E9EB"/>
</g>
<mask id="mask3_24_499" style="mask-type:alpha" maskUnits="userSpaceOnUse" x="290" y="342" width="179" height="2">
<rect x="290.139" y="342.017" width="178.861" height="1.06111" fill="#EDEDED"/>
</mask>
<g mask="url(#mask3_24_499)">
<rect x="290.139" y="342.017" width="178.861" height="1.06111" fill="#E8E9EB"/>
</g>
<path d="M311.109 359.384V367.688H310.017V361.496L307.257 367.688H306.489L303.717 361.484V367.688H302.625V359.384H303.801L306.873 366.248L309.945 359.384H311.109ZM315.829 367.796C315.213 367.796 314.653 367.656 314.149 367.376C313.653 367.096 313.261 366.7 312.973 366.188C312.693 365.668 312.553 365.068 312.553 364.388C312.553 363.716 312.697 363.124 312.985 362.612C313.281 362.092 313.681 361.696 314.185 361.424C314.689 361.144 315.253 361.004 315.877 361.004C316.501 361.004 317.065 361.144 317.569 361.424C318.073 361.696 318.469 362.088 318.757 362.6C319.053 363.112 319.201 363.708 319.201 364.388C319.201 365.068 319.049 365.668 318.745 366.188C318.449 366.7 318.045 367.096 317.533 367.376C317.021 367.656 316.453 367.796 315.829 367.796ZM315.829 366.836C316.221 366.836 316.589 366.744 316.933 366.56C317.277 366.376 317.553 366.1 317.761 365.732C317.977 365.364 318.085 364.916 318.085 364.388C318.085 363.86 317.981 363.412 317.773 363.044C317.565 362.676 317.293 362.404 316.957 362.228C316.621 362.044 316.257 361.952 315.865 361.952C315.465 361.952 315.097 362.044 314.761 362.228C314.433 362.404 314.169 362.676 313.969 363.044C313.769 363.412 313.669 363.86 313.669 364.388C313.669 364.924 313.765 365.376 313.957 365.744C314.157 366.112 314.421 366.388 314.749 366.572C315.077 366.748 315.437 366.836 315.829 366.836ZM323.84 360.992C324.64 360.992 325.288 361.236 325.784 361.724C326.28 362.204 326.528 362.9 326.528 363.812V367.688H325.448V363.968C325.448 363.312 325.284 362.812 324.956 362.468C324.628 362.116 324.18 361.94 323.612 361.94C323.036 361.94 322.576 362.12 322.232 362.48C321.896 362.84 321.728 363.364 321.728 364.052V367.688H320.636V361.112H321.728V362.048C321.944 361.712 322.236 361.452 322.604 361.268C322.98 361.084 323.392 360.992 323.84 360.992Z" fill="#8A9099"/>
<path d="M383.028 359.324V360.212H380.748V367.688H379.656V360.212H377.364V359.324H383.028ZM390.205 361.112V367.688H389.113V366.716C388.905 367.052 388.613 367.316 388.237 367.508C387.869 367.692 387.461 367.784 387.013 367.784C386.501 367.784 386.041 367.68 385.633 367.472C385.225 367.256 384.901 366.936 384.661 366.512C384.429 366.088 384.313 365.572 384.313 364.964V361.112H385.393V364.82C385.393 365.468 385.557 365.968 385.885 366.32C386.213 366.664 386.661 366.836 387.229 366.836C387.813 366.836 388.273 366.656 388.609 366.296C388.945 365.936 389.113 365.412 389.113 364.724V361.112H390.205ZM398.048 364.148C398.048 364.356 398.036 364.576 398.012 364.808H392.756C392.796 365.456 393.016 365.964 393.416 366.332C393.824 366.692 394.316 366.872 394.892 366.872C395.364 366.872 395.756 366.764 396.068 366.548C396.388 366.324 396.612 366.028 396.74 365.66H397.916C397.74 366.292 397.388 366.808 396.86 367.208C396.332 367.6 395.676 367.796 394.892 367.796C394.268 367.796 393.708 367.656 393.212 367.376C392.724 367.096 392.34 366.7 392.06 366.188C391.78 365.668 391.64 365.068 391.64 364.388C391.64 363.708 391.776 363.112 392.048 362.6C392.32 362.088 392.7 361.696 393.188 361.424C393.684 361.144 394.252 361.004 394.892 361.004C395.516 361.004 396.068 361.14 396.548 361.412C397.028 361.684 397.396 362.06 397.652 362.54C397.916 363.012 398.048 363.548 398.048 364.148ZM396.92 363.92C396.92 363.504 396.828 363.148 396.644 362.852C396.46 362.548 396.208 362.32 395.888 362.168C395.576 362.008 395.228 361.928 394.844 361.928C394.292 361.928 393.82 362.104 393.428 362.456C393.044 362.808 392.824 363.296 392.768 363.92H396.92Z" fill="#8A9099"/>
<path d="M458.785 359.324L456.361 367.688H455.137L453.193 360.956L451.177 367.688L449.965 367.7L447.625 359.324H448.789L450.613 366.416L452.629 359.324H453.853L455.773 366.392L457.609 359.324H458.785ZM465.98 364.148C465.98 364.356 465.968 364.576 465.944 364.808H460.688C460.728 365.456 460.948 365.964 461.348 366.332C461.756 366.692 462.248 366.872 462.824 366.872C463.296 366.872 463.688 366.764 464 366.548C464.32 366.324 464.544 366.028 464.672 365.66H465.848C465.672 366.292 465.32 366.808 464.792 367.208C464.264 367.6 463.608 367.796 462.824 367.796C462.2 367.796 461.64 367.656 461.144 367.376C460.656 367.096 460.272 366.7 459.992 366.188C459.712 365.668 459.572 365.068 459.572 364.388C459.572 363.708 459.708 363.112 459.98 362.6C460.252 362.088 460.632 361.696 461.12 361.424C461.616 361.144 462.184 361.004 462.824 361.004C463.448 361.004 464 361.14 464.48 361.412C464.96 361.684 465.328 362.06 465.584 362.54C465.848 363.012 465.98 363.548 465.98 364.148ZM464.852 363.92C464.852 363.504 464.76 363.148 464.576 362.852C464.392 362.548 464.14 362.32 463.82 362.168C463.508 362.008 463.16 361.928 462.776 361.928C462.224 361.928 461.752 362.104 461.36 362.456C460.976 362.808 460.756 363.296 460.7 363.92H464.852ZM467.013 364.376C467.013 363.704 467.149 363.116 467.421 362.612C467.693 362.1 468.065 361.704 468.537 361.424C469.017 361.144 469.553 361.004 470.145 361.004C470.657 361.004 471.133 361.124 471.573 361.364C472.013 361.596 472.349 361.904 472.581 362.288V358.808H473.685V367.688H472.581V366.452C472.365 366.844 472.045 367.168 471.621 367.424C471.197 367.672 470.701 367.796 470.133 367.796C469.549 367.796 469.017 367.652 468.537 367.364C468.065 367.076 467.693 366.672 467.421 366.152C467.149 365.632 467.013 365.04 467.013 364.376ZM472.581 364.388C472.581 363.892 472.481 363.46 472.281 363.092C472.081 362.724 471.809 362.444 471.465 362.252C471.129 362.052 470.757 361.952 470.349 361.952C469.941 361.952 469.569 362.048 469.233 362.24C468.897 362.432 468.629 362.712 468.429 363.08C468.229 363.448 468.129 363.88 468.129 364.376C468.129 364.88 468.229 365.32 468.429 365.696C468.629 366.064 468.897 366.348 469.233 366.548C469.569 366.74 469.941 366.836 470.349 366.836C470.757 366.836 471.129 366.74 471.465 366.548C471.809 366.348 472.081 366.064 472.281 365.696C472.481 365.32 472.581 364.884 472.581 364.388Z" fill="#8A9099"/>
<path d="M270.614 342.039C270.614 340.663 270.838 339.591 271.286 338.823C271.734 338.047 272.518 337.659 273.638 337.659C274.75 337.659 275.53 338.047 275.978 338.823C276.426 339.591 276.65 340.663 276.65 342.039C276.65 343.439 276.426 344.527 275.978 345.303C275.53 346.079 274.75 346.467 273.638 346.467C272.518 346.467 271.734 346.079 271.286 345.303C270.838 344.527 270.614 343.439 270.614 342.039ZM275.57 342.039C275.57 341.343 275.522 340.755 275.426 340.275C275.338 339.787 275.15 339.395 274.862 339.099C274.582 338.803 274.174 338.655 273.638 338.655C273.094 338.655 272.678 338.803 272.39 339.099C272.11 339.395 271.922 339.787 271.826 340.275C271.738 340.755 271.694 341.343 271.694 342.039C271.694 342.759 271.738 343.363 271.826 343.851C271.922 344.339 272.11 344.731 272.39 345.027C272.678 345.323 273.094 345.471 273.638 345.471C274.174 345.471 274.582 345.323 274.862 345.027C275.15 344.731 275.338 344.339 275.426 343.851C275.522 343.363 275.57 342.759 275.57 342.039Z" fill="#8A9099"/>
<path d="M258.947 284.67V283.674H261.203V292.35H260.099V284.67H258.947ZM263.079 287.922C263.079 286.546 263.303 285.474 263.751 284.706C264.199 283.93 264.983 283.542 266.103 283.542C267.215 283.542 267.995 283.93 268.443 284.706C268.891 285.474 269.115 286.546 269.115 287.922C269.115 289.322 268.891 290.41 268.443 291.186C267.995 291.962 267.215 292.35 266.103 292.35C264.983 292.35 264.199 291.962 263.751 291.186C263.303 290.41 263.079 289.322 263.079 287.922ZM268.035 287.922C268.035 287.226 267.987 286.638 267.891 286.158C267.803 285.67 267.615 285.278 267.327 284.982C267.047 284.686 266.639 284.538 266.103 284.538C265.559 284.538 265.143 284.686 264.855 284.982C264.575 285.278 264.387 285.67 264.291 286.158C264.203 286.638 264.159 287.226 264.159 287.922C264.159 288.642 264.203 289.246 264.291 289.734C264.387 290.222 264.575 290.614 264.855 290.91C265.143 291.206 265.559 291.354 266.103 291.354C266.639 291.354 267.047 291.206 267.327 290.91C267.615 290.614 267.803 290.222 267.891 289.734C267.987 289.246 268.035 288.642 268.035 287.922ZM270.614 287.922C270.614 286.546 270.838 285.474 271.286 284.706C271.734 283.93 272.518 283.542 273.638 283.542C274.75 283.542 275.53 283.93 275.978 284.706C276.426 285.474 276.65 286.546 276.65 287.922C276.65 289.322 276.426 290.41 275.978 291.186C275.53 291.962 274.75 292.35 273.638 292.35C272.518 292.35 271.734 291.962 271.286 291.186C270.838 290.41 270.614 289.322 270.614 287.922ZM275.57 287.922C275.57 287.226 275.522 286.638 275.426 286.158C275.338 285.67 275.15 285.278 274.862 284.982C274.582 284.686 274.174 284.538 273.638 284.538C273.094 284.538 272.678 284.686 272.39 284.982C272.11 285.278 271.922 285.67 271.826 286.158C271.738 286.638 271.694 287.226 271.694 287.922C271.694 288.642 271.738 289.246 271.826 289.734C271.922 290.222 272.11 290.614 272.39 290.91C272.678 291.206 273.094 291.354 273.638 291.354C274.174 291.354 274.582 291.206 274.862 290.91C275.15 290.614 275.338 290.222 275.426 289.734C275.522 289.246 275.57 288.642 275.57 287.922Z" fill="#8A9099"/>
<path d="M256.045 237.357C257.061 236.541 257.857 235.873 258.433 235.353C259.009 234.825 259.493 234.277 259.885 233.709C260.285 233.133 260.485 232.569 260.485 232.017C260.485 231.497 260.357 231.089 260.101 230.793C259.853 230.489 259.449 230.337 258.889 230.337C258.345 230.337 257.921 230.509 257.617 230.853C257.321 231.189 257.161 231.641 257.137 232.209H256.081C256.113 231.313 256.385 230.621 256.897 230.133C257.409 229.645 258.069 229.401 258.877 229.401C259.701 229.401 260.353 229.629 260.833 230.085C261.321 230.541 261.565 231.169 261.565 231.969C261.565 232.633 261.365 233.281 260.965 233.913C260.573 234.537 260.125 235.089 259.621 235.569C259.117 236.041 258.473 236.593 257.689 237.225H261.817V238.137H256.045V237.357ZM263.079 233.805C263.079 232.429 263.303 231.357 263.751 230.589C264.199 229.813 264.983 229.425 266.103 229.425C267.215 229.425 267.995 229.813 268.443 230.589C268.891 231.357 269.115 232.429 269.115 233.805C269.115 235.205 268.891 236.293 268.443 237.069C267.995 237.845 267.215 238.233 266.103 238.233C264.983 238.233 264.199 237.845 263.751 237.069C263.303 236.293 263.079 235.205 263.079 233.805ZM268.035 233.805C268.035 233.109 267.987 232.521 267.891 232.041C267.803 231.553 267.615 231.161 267.327 230.865C267.047 230.569 266.639 230.421 266.103 230.421C265.559 230.421 265.143 230.569 264.855 230.865C264.575 231.161 264.387 231.553 264.291 232.041C264.203 232.521 264.159 233.109 264.159 233.805C264.159 234.525 264.203 235.129 264.291 235.617C264.387 236.105 264.575 236.497 264.855 236.793C265.143 237.089 265.559 237.237 266.103 237.237C266.639 237.237 267.047 237.089 267.327 236.793C267.615 236.497 267.803 236.105 267.891 235.617C267.987 235.129 268.035 234.525 268.035 233.805ZM270.614 233.805C270.614 232.429 270.838 231.357 271.286 230.589C271.734 229.813 272.518 229.425 273.638 229.425C274.75 229.425 275.53 229.813 275.978 230.589C276.426 231.357 276.65 232.429 276.65 233.805C276.65 235.205 276.426 236.293 275.978 237.069C275.53 237.845 274.75 238.233 273.638 238.233C272.518 238.233 271.734 237.845 271.286 237.069C270.838 236.293 270.614 235.205 270.614 233.805ZM275.57 233.805C275.57 233.109 275.522 232.521 275.426 232.041C275.338 231.553 275.15 231.161 274.862 230.865C274.582 230.569 274.174 230.421 273.638 230.421C273.094 230.421 272.678 230.569 272.39 230.865C272.11 231.161 271.922 231.553 271.826 232.041C271.738 232.521 271.694 233.109 271.694 233.805C271.694 234.525 271.738 235.129 271.826 235.617C271.922 236.105 272.11 236.497 272.39 236.793C272.678 237.089 273.094 237.237 273.638 237.237C274.174 237.237 274.582 237.089 274.862 236.793C275.15 236.497 275.338 236.105 275.426 235.617C275.522 235.129 275.57 234.525 275.57 233.805Z" fill="#8A9099"/>
<path d="M255.989 177.624C256.045 176.888 256.329 176.312 256.841 175.896C257.353 175.48 258.017 175.272 258.833 175.272C259.377 175.272 259.845 175.372 260.237 175.572C260.637 175.764 260.937 176.028 261.137 176.364C261.345 176.7 261.449 177.08 261.449 177.504C261.449 178 261.305 178.428 261.017 178.788C260.737 179.148 260.369 179.38 259.913 179.484V179.544C260.433 179.672 260.845 179.924 261.149 180.3C261.453 180.676 261.605 181.168 261.605 181.776C261.605 182.232 261.501 182.644 261.293 183.012C261.085 183.372 260.773 183.656 260.357 183.864C259.941 184.072 259.441 184.176 258.857 184.176C258.009 184.176 257.313 183.956 256.769 183.516C256.225 183.068 255.921 182.436 255.857 181.62H256.913C256.969 182.1 257.165 182.492 257.501 182.796C257.837 183.1 258.285 183.252 258.845 183.252C259.405 183.252 259.829 183.108 260.117 182.82C260.413 182.524 260.561 182.144 260.561 181.68C260.561 181.08 260.361 180.648 259.961 180.384C259.561 180.12 258.957 179.988 258.149 179.988H257.873V179.076H258.161C258.897 179.068 259.453 178.948 259.829 178.716C260.205 178.476 260.393 178.108 260.393 177.612C260.393 177.188 260.253 176.848 259.973 176.592C259.701 176.336 259.309 176.208 258.797 176.208C258.301 176.208 257.901 176.336 257.597 176.592C257.293 176.848 257.113 177.192 257.057 177.624H255.989ZM263.079 179.688C263.079 178.312 263.303 177.24 263.751 176.472C264.199 175.696 264.983 175.308 266.103 175.308C267.215 175.308 267.995 175.696 268.443 176.472C268.891 177.24 269.115 178.312 269.115 179.688C269.115 181.088 268.891 182.176 268.443 182.952C267.995 183.728 267.215 184.116 266.103 184.116C264.983 184.116 264.199 183.728 263.751 182.952C263.303 182.176 263.079 181.088 263.079 179.688ZM268.035 179.688C268.035 178.992 267.987 178.404 267.891 177.924C267.803 177.436 267.615 177.044 267.327 176.748C267.047 176.452 266.639 176.304 266.103 176.304C265.559 176.304 265.143 176.452 264.855 176.748C264.575 177.044 264.387 177.436 264.291 177.924C264.203 178.404 264.159 178.992 264.159 179.688C264.159 180.408 264.203 181.012 264.291 181.5C264.387 181.988 264.575 182.38 264.855 182.676C265.143 182.972 265.559 183.12 266.103 183.12C266.639 183.12 267.047 182.972 267.327 182.676C267.615 182.38 267.803 181.988 267.891 181.5C267.987 181.012 268.035 180.408 268.035 179.688ZM270.614 179.688C270.614 178.312 270.838 177.24 271.286 176.472C271.734 175.696 272.518 175.308 273.638 175.308C274.75 175.308 275.53 175.696 275.978 176.472C276.426 177.24 276.65 178.312 276.65 179.688C276.65 181.088 276.426 182.176 275.978 182.952C275.53 183.728 274.75 184.116 273.638 184.116C272.518 184.116 271.734 183.728 271.286 182.952C270.838 182.176 270.614 181.088 270.614 179.688ZM275.57 179.688C275.57 178.992 275.522 178.404 275.426 177.924C275.338 177.436 275.15 177.044 274.862 176.748C274.582 176.452 274.174 176.304 273.638 176.304C273.094 176.304 272.678 176.452 272.39 176.748C272.11 177.044 271.922 177.436 271.826 177.924C271.738 178.404 271.694 178.992 271.694 179.688C271.694 180.408 271.738 181.012 271.826 181.5C271.922 181.988 272.11 182.38 272.39 182.676C272.678 182.972 273.094 183.12 273.638 183.12C274.174 183.12 274.582 182.972 274.862 182.676C275.15 182.38 275.338 181.988 275.426 181.5C275.522 181.012 275.57 180.408 275.57 179.688Z" fill="#8A9099"/>
<path d="M255.268 128.068V127.24L259.48 121.408H260.788V127.12H261.988V128.068H260.788V130H259.708V128.068H255.268ZM259.756 122.548L256.528 127.12H259.756V122.548ZM263.079 125.572C263.079 124.196 263.303 123.124 263.751 122.356C264.199 121.58 264.983 121.192 266.103 121.192C267.215 121.192 267.995 121.58 268.443 122.356C268.891 123.124 269.115 124.196 269.115 125.572C269.115 126.972 268.891 128.06 268.443 128.836C267.995 129.612 267.215 130 266.103 130C264.983 130 264.199 129.612 263.751 128.836C263.303 128.06 263.079 126.972 263.079 125.572ZM268.035 125.572C268.035 124.876 267.987 124.288 267.891 123.808C267.803 123.32 267.615 122.928 267.327 122.632C267.047 122.336 266.639 122.188 266.103 122.188C265.559 122.188 265.143 122.336 264.855 122.632C264.575 122.928 264.387 123.32 264.291 123.808C264.203 124.288 264.159 124.876 264.159 125.572C264.159 126.292 264.203 126.896 264.291 127.384C264.387 127.872 264.575 128.264 264.855 128.56C265.143 128.856 265.559 129.004 266.103 129.004C266.639 129.004 267.047 128.856 267.327 128.56C267.615 128.264 267.803 127.872 267.891 127.384C267.987 126.896 268.035 126.292 268.035 125.572ZM270.614 125.572C270.614 124.196 270.838 123.124 271.286 122.356C271.734 121.58 272.518 121.192 273.638 121.192C274.75 121.192 275.53 121.58 275.978 122.356C276.426 123.124 276.65 124.196 276.65 125.572C276.65 126.972 276.426 128.06 275.978 128.836C275.53 129.612 274.75 130 273.638 130C272.518 130 271.734 129.612 271.286 128.836C270.838 128.06 270.614 126.972 270.614 125.572ZM275.57 125.572C275.57 124.876 275.522 124.288 275.426 123.808C275.338 123.32 275.15 122.928 274.862 122.632C274.582 122.336 274.174 122.188 273.638 122.188C273.094 122.188 272.678 122.336 272.39 122.632C272.11 122.928 271.922 123.32 271.826 123.808C271.738 124.288 271.694 124.876 271.694 125.572C271.694 126.292 271.738 126.896 271.826 127.384C271.922 127.872 272.11 128.264 272.39 128.56C272.678 128.856 273.094 129.004 273.638 129.004C274.174 129.004 274.582 128.856 274.862 128.56C275.15 128.264 275.338 127.872 275.426 127.384C275.522 126.896 275.57 126.292 275.57 125.572Z" fill="#8A9099"/>
<mask id="mask4_24_499" style="mask-type:alpha" maskUnits="userSpaceOnUse" x="306" y="200" width="18" height="143">
<rect x="306.056" y="200.889" width="16.9778" height="141.128" rx="8.48889" fill="url(#paint0_linear_24_499)"/>
</mask>
<g mask="url(#mask4_24_499)">
<rect x="306.056" y="200.889" width="16.9778" height="141.128" fill="#676EB4"/>
</g>
<mask id="mask5_24_499" style="mask-type:alpha" maskUnits="userSpaceOnUse" x="379" y="234" width="18" height="109">
<rect x="379.272" y="234" width="16.9778" height="108.017" rx="8.48889" fill="url(#paint1_linear_24_499)"/>
</mask>
<g mask="url(#mask5_24_499)">
<rect x="379.272" y="234" width="16.9778" height="108.017" fill="#676EB4"/>
</g>
<mask id="mask6_24_499" style="mask-type:alpha" maskUnits="userSpaceOnUse" x="452" y="288" width="18" height="55">
<rect x="452.489" y="288" width="16.9778" height="54.0161" rx="8.48889" fill="url(#paint2_linear_24_499)"/>
</mask>
<g mask="url(#mask6_24_499)">
<rect x="452.489" y="288" width="16.9778" height="54.0161" fill="#676EB4"/>
</g>
<g filter="url(#filter0_b_24_499)">
<rect y="44" width="290" height="204" rx="10" fill="url(#paint3_linear_24_499)"/>
</g>
<path d="M24.35 101.737V98.6173H30.59V120.487H27.14V101.737H24.35ZM35.2883 109.267C35.2883 105.807 35.8683 103.107 37.0283 101.167C38.2083 99.2073 40.2283 98.2273 43.0883 98.2273C45.9483 98.2273 47.9583 99.2073 49.1183 101.167C50.2983 103.107 50.8883 105.807 50.8883 109.267C50.8883 112.767 50.2983 115.507 49.1183 117.487C47.9583 119.447 45.9483 120.427 43.0883 120.427C40.2283 120.427 38.2083 119.447 37.0283 117.487C35.8683 115.507 35.2883 112.767 35.2883 109.267ZM47.5283 109.267C47.5283 107.647 47.4183 106.277 47.1983 105.157C46.9983 104.037 46.5783 103.127 45.9383 102.427C45.2983 101.707 44.3483 101.347 43.0883 101.347C41.8283 101.347 40.8783 101.707 40.2383 102.427C39.5983 103.127 39.1683 104.037 38.9483 105.157C38.7483 106.277 38.6483 107.647 38.6483 109.267C38.6483 110.947 38.7483 112.357 38.9483 113.497C39.1483 114.637 39.5683 115.557 40.2083 116.257C40.8683 116.957 41.8283 117.307 43.0883 117.307C44.3483 117.307 45.2983 116.957 45.9383 116.257C46.5983 115.557 47.0283 114.637 47.2283 113.497C47.4283 112.357 47.5283 110.947 47.5283 109.267ZM53.967 103.897C53.967 102.437 54.387 101.297 55.227 100.477C56.087 99.6373 57.187 99.2173 58.527 99.2173C59.867 99.2173 60.957 99.6373 61.797 100.477C62.657 101.297 63.087 102.437 63.087 103.897C63.087 105.357 62.657 106.507 61.797 107.347C60.957 108.187 59.867 108.607 58.527 108.607C57.187 108.607 56.087 108.187 55.227 107.347C54.387 106.507 53.967 105.357 53.967 103.897ZM72.267 99.6073L60.297 120.487H56.937L68.907 99.6073H72.267ZM58.527 101.287C57.267 101.287 56.637 102.157 56.637 103.897C56.637 105.657 57.267 106.537 58.527 106.537C59.127 106.537 59.587 106.327 59.907 105.907C60.247 105.467 60.417 104.797 60.417 103.897C60.417 102.157 59.787 101.287 58.527 101.287ZM66.177 116.167C66.177 114.707 66.597 113.567 67.437 112.747C68.297 111.907 69.397 111.487 70.737 111.487C72.057 111.487 73.137 111.907 73.977 112.747C74.837 113.567 75.267 114.707 75.267 116.167C75.267 117.627 74.837 118.777 73.977 119.617C73.137 120.457 72.057 120.877 70.737 120.877C69.397 120.877 68.297 120.457 67.437 119.617C66.597 118.777 66.177 117.627 66.177 116.167ZM70.707 113.557C69.447 113.557 68.817 114.427 68.817 116.167C68.817 117.907 69.447 118.777 70.707 118.777C71.967 118.777 72.597 117.907 72.597 116.167C72.597 114.427 71.967 113.557 70.707 113.557Z" fill="#3F434A"/>
<path d="M34.76 75.62V86H33.395V78.26L29.945 86H28.985L25.52 78.245V86H24.155V75.62H25.625L29.465 84.2L33.305 75.62H34.76ZM42.5799 86L40.0899 81.725H38.4399V86H37.0749V75.545H40.4499C41.2399 75.545 41.9049 75.68 42.4449 75.95C42.9949 76.22 43.4049 76.585 43.6749 77.045C43.9449 77.505 44.0799 78.03 44.0799 78.62C44.0799 79.34 43.8699 79.975 43.4499 80.525C43.0399 81.075 42.4199 81.44 41.5899 81.62L44.2149 86H42.5799ZM38.4399 80.63H40.4499C41.1899 80.63 41.7449 80.45 42.1149 80.09C42.4849 79.72 42.6699 79.23 42.6699 78.62C42.6699 78 42.4849 77.52 42.1149 77.18C41.7549 76.84 41.1999 76.67 40.4499 76.67H38.4399V80.63ZM58.1199 78.575C57.8299 77.965 57.4099 77.495 56.8599 77.165C56.3099 76.825 55.6699 76.655 54.9399 76.655C54.2099 76.655 53.5499 76.825 52.9599 77.165C52.3799 77.495 51.9199 77.975 51.5799 78.605C51.2499 79.225 51.0849 79.945 51.0849 80.765C51.0849 81.585 51.2499 82.305 51.5799 82.925C51.9199 83.545 52.3799 84.025 52.9599 84.365C53.5499 84.695 54.2099 84.86 54.9399 84.86C55.9599 84.86 56.7999 84.555 57.4599 83.945C58.1199 83.335 58.5049 82.51 58.6149 81.47H54.4449V80.36H60.0699V81.41C59.9899 82.27 59.7199 83.06 59.2599 83.78C58.7999 84.49 58.1949 85.055 57.4449 85.475C56.6949 85.885 55.8599 86.09 54.9399 86.09C53.9699 86.09 53.0849 85.865 52.2849 85.415C51.4849 84.955 50.8499 84.32 50.3799 83.51C49.9199 82.7 49.6899 81.785 49.6899 80.765C49.6899 79.745 49.9199 78.83 50.3799 78.02C50.8499 77.2 51.4849 76.565 52.2849 76.115C53.0849 75.655 53.9699 75.425 54.9399 75.425C56.0499 75.425 57.0299 75.7 57.8799 76.25C58.7399 76.8 59.3649 77.575 59.7549 78.575H58.1199ZM63.2397 79.115C63.4797 78.645 63.8197 78.28 64.2597 78.02C64.7097 77.76 65.2547 77.63 65.8947 77.63V79.04H65.5347C64.0047 79.04 63.2397 79.87 63.2397 81.53V86H61.8747V77.78H63.2397V79.115ZM71.0554 86.135C70.2854 86.135 69.5854 85.96 68.9554 85.61C68.3354 85.26 67.8454 84.765 67.4854 84.125C67.1354 83.475 66.9604 82.725 66.9604 81.875C66.9604 81.035 67.1404 80.295 67.5004 79.655C67.8704 79.005 68.3704 78.51 69.0004 78.17C69.6304 77.82 70.3354 77.645 71.1154 77.645C71.8954 77.645 72.6004 77.82 73.2304 78.17C73.8604 78.51 74.3554 79 74.7154 79.64C75.0854 80.28 75.2704 81.025 75.2704 81.875C75.2704 82.725 75.0804 83.475 74.7004 84.125C74.3304 84.765 73.8254 85.26 73.1854 85.61C72.5454 85.96 71.8354 86.135 71.0554 86.135ZM71.0554 84.935C71.5454 84.935 72.0054 84.82 72.4354 84.59C72.8654 84.36 73.2104 84.015 73.4704 83.555C73.7404 83.095 73.8754 82.535 73.8754 81.875C73.8754 81.215 73.7454 80.655 73.4854 80.195C73.2254 79.735 72.8854 79.395 72.4654 79.175C72.0454 78.945 71.5904 78.83 71.1004 78.83C70.6004 78.83 70.1404 78.945 69.7204 79.175C69.3104 79.395 68.9804 79.735 68.7304 80.195C68.4804 80.655 68.3554 81.215 68.3554 81.875C68.3554 82.545 68.4754 83.11 68.7154 83.57C68.9654 84.03 69.2954 84.375 69.7054 84.605C70.1154 84.825 70.5654 84.935 71.0554 84.935ZM88.0152 77.78L85.4502 86H84.0402L82.0602 79.475L80.0802 86H78.6702L76.0902 77.78H77.4852L79.3752 84.68L81.4152 77.78H82.8102L84.8052 84.695L86.6652 77.78H88.0152ZM91.0348 78.905V83.75C91.0348 84.15 91.1198 84.435 91.2898 84.605C91.4598 84.765 91.7548 84.845 92.1748 84.845H93.1798V86H91.9498C91.1898 86 90.6198 85.825 90.2398 85.475C89.8598 85.125 89.6698 84.55 89.6698 83.75V78.905H88.6048V77.78H89.6698V75.71H91.0348V77.78H93.1798V78.905H91.0348ZM98.9137 77.63C99.5337 77.63 100.094 77.765 100.594 78.035C101.094 78.295 101.484 78.69 101.764 79.22C102.054 79.75 102.199 80.395 102.199 81.155V86H100.849V81.35C100.849 80.53 100.644 79.905 100.234 79.475C99.8237 79.035 99.2637 78.815 98.5537 78.815C97.8337 78.815 97.2587 79.04 96.8287 79.49C96.4087 79.94 96.1987 80.595 96.1987 81.455V86H94.8337V74.9H96.1987V78.95C96.4687 78.53 96.8387 78.205 97.3087 77.975C97.7887 77.745 98.3237 77.63 98.9137 77.63Z" fill="#8A9099"/>
<path opacity="0.1" d="M77.3268 169.803C70.0225 171.629 65.1138 169.874 57.906 171.959C41.9423 176.575 40.827 198.772 23 197.818V230H260V175.55C240.101 175.635 244.429 203.565 222.475 203.565C200.521 203.565 198.918 180.578 177.809 180.578C162.959 180.578 155.148 194.683 138.967 187.762C122.786 180.841 124.713 154 103.503 154C90.9678 154 89.3536 166.798 77.3268 169.803Z" fill="url(#paint4_linear_24_499)"/>
<path d="M24.9748 197.818C42.8018 198.772 41.9421 176.575 57.9058 171.959C65.1137 169.874 70.0223 171.629 77.3266 169.803C89.3534 166.798 90.9676 154 103.503 154C124.712 154 122.786 180.841 138.967 187.762C155.147 194.683 162.958 180.578 177.808 180.578C198.918 180.578 200.521 203.565 222.475 203.565C244.429 203.565 238.125 175.635 258.025 175.55" stroke="#676EB4" stroke-width="2" stroke-linecap="round"/>
<g filter="url(#filter1_d_24_499)">
<circle cx="495" cy="134" r="124" fill="white"/>
</g>
<path d="M468.296 148.06C468.296 149.06 468.046 150 467.546 150.88C467.066 151.76 466.346 152.5 465.386 153.1C464.446 153.7 463.326 154.06 462.026 154.18V156.61H460.076V154.18C458.196 154 456.676 153.41 455.516 152.41C454.356 151.41 453.776 150.09 453.776 148.45H457.436C457.496 149.23 457.746 149.88 458.186 150.4C458.626 150.9 459.256 151.22 460.076 151.36V144.76C458.736 144.42 457.646 144.08 456.806 143.74C455.966 143.38 455.246 142.82 454.646 142.06C454.066 141.3 453.776 140.26 453.776 138.94C453.776 137.28 454.356 135.91 455.516 134.83C456.676 133.73 458.196 133.09 460.076 132.91V130.48H462.026V132.91C463.786 133.07 465.196 133.63 466.256 134.59C467.336 135.53 467.946 136.83 468.086 138.49H464.426C464.366 137.87 464.126 137.32 463.706 136.84C463.286 136.34 462.726 136 462.026 135.82V142.3C463.366 142.62 464.456 142.96 465.296 143.32C466.136 143.66 466.846 144.21 467.426 144.97C468.006 145.71 468.296 146.74 468.296 148.06ZM457.256 138.76C457.256 139.58 457.496 140.22 457.976 140.68C458.476 141.14 459.176 141.51 460.076 141.79V135.73C459.216 135.83 458.526 136.14 458.006 136.66C457.506 137.18 457.256 137.88 457.256 138.76ZM462.026 151.36C462.906 151.22 463.596 150.87 464.096 150.31C464.596 149.73 464.846 149.04 464.846 148.24C464.846 147.44 464.596 146.82 464.096 146.38C463.616 145.92 462.926 145.55 462.026 145.27V151.36ZM472.837 135.25V132.13H479.077V154H475.627V135.25H472.837ZM483.776 142.78C483.776 139.32 484.356 136.62 485.516 134.68C486.696 132.72 488.716 131.74 491.576 131.74C494.436 131.74 496.446 132.72 497.606 134.68C498.786 136.62 499.376 139.32 499.376 142.78C499.376 146.28 498.786 149.02 497.606 151C496.446 152.96 494.436 153.94 491.576 153.94C488.716 153.94 486.696 152.96 485.516 151C484.356 149.02 483.776 146.28 483.776 142.78ZM496.016 142.78C496.016 141.16 495.906 139.79 495.686 138.67C495.486 137.55 495.066 136.64 494.426 135.94C493.786 135.22 492.836 134.86 491.576 134.86C490.316 134.86 489.366 135.22 488.726 135.94C488.086 136.64 487.656 137.55 487.436 138.67C487.236 139.79 487.136 141.16 487.136 142.78C487.136 144.46 487.236 145.87 487.436 147.01C487.636 148.15 488.056 149.07 488.696 149.77C489.356 150.47 490.316 150.82 491.576 150.82C492.836 150.82 493.786 150.47 494.426 149.77C495.086 149.07 495.516 148.15 495.716 147.01C495.916 145.87 496.016 144.46 496.016 142.78ZM502.994 142.78C502.994 139.32 503.574 136.62 504.734 134.68C505.914 132.72 507.934 131.74 510.794 131.74C513.654 131.74 515.664 132.72 516.824 134.68C518.004 136.62 518.594 139.32 518.594 142.78C518.594 146.28 518.004 149.02 516.824 151C515.664 152.96 513.654 153.94 510.794 153.94C507.934 153.94 505.914 152.96 504.734 151C503.574 149.02 502.994 146.28 502.994 142.78ZM515.234 142.78C515.234 141.16 515.124 139.79 514.904 138.67C514.704 137.55 514.284 136.64 513.644 135.94C513.004 135.22 512.054 134.86 510.794 134.86C509.534 134.86 508.584 135.22 507.944 135.94C507.304 136.64 506.874 137.55 506.654 138.67C506.454 139.79 506.354 141.16 506.354 142.78C506.354 144.46 506.454 145.87 506.654 147.01C506.854 148.15 507.274 149.07 507.914 149.77C508.574 150.47 509.534 150.82 510.794 150.82C512.054 150.82 513.004 150.47 513.644 149.77C514.304 149.07 514.734 148.15 514.934 147.01C515.134 145.87 515.234 144.46 515.234 142.78ZM529.203 145.75L536.823 154H532.203L526.083 146.89V154H522.663V131.8H526.083V144.7L532.083 137.47H536.823L529.203 145.75Z" fill="#3F434A"/>
<path d="M462.505 104.575C462.215 103.965 461.795 103.495 461.245 103.165C460.695 102.825 460.055 102.655 459.325 102.655C458.595 102.655 457.935 102.825 457.345 103.165C456.765 103.495 456.305 103.975 455.965 104.605C455.635 105.225 455.47 105.945 455.47 106.765C455.47 107.585 455.635 108.305 455.965 108.925C456.305 109.545 456.765 110.025 457.345 110.365C457.935 110.695 458.595 110.86 459.325 110.86C460.345 110.86 461.185 110.555 461.845 109.945C462.505 109.335 462.89 108.51 463 107.47H458.83V106.36H464.455V107.41C464.375 108.27 464.105 109.06 463.645 109.78C463.185 110.49 462.58 111.055 461.83 111.475C461.08 111.885 460.245 112.09 459.325 112.09C458.355 112.09 457.47 111.865 456.67 111.415C455.87 110.955 455.235 110.32 454.765 109.51C454.305 108.7 454.075 107.785 454.075 106.765C454.075 105.745 454.305 104.83 454.765 104.02C455.235 103.2 455.87 102.565 456.67 102.115C457.47 101.655 458.355 101.425 459.325 101.425C460.435 101.425 461.415 101.7 462.265 102.25C463.125 102.8 463.75 103.575 464.14 104.575H462.505ZM473.759 107.575C473.759 107.835 473.744 108.11 473.714 108.4H467.144C467.194 109.21 467.469 109.845 467.969 110.305C468.479 110.755 469.094 110.98 469.814 110.98C470.404 110.98 470.894 110.845 471.284 110.575C471.684 110.295 471.964 109.925 472.124 109.465H473.594C473.374 110.255 472.934 110.9 472.274 111.4C471.614 111.89 470.794 112.135 469.814 112.135C469.034 112.135 468.334 111.96 467.714 111.61C467.104 111.26 466.624 110.765 466.274 110.125C465.924 109.475 465.749 108.725 465.749 107.875C465.749 107.025 465.919 106.28 466.259 105.64C466.599 105 467.074 104.51 467.684 104.17C468.304 103.82 469.014 103.645 469.814 103.645C470.594 103.645 471.284 103.815 471.884 104.155C472.484 104.495 472.944 104.965 473.264 105.565C473.594 106.155 473.759 106.825 473.759 107.575ZM472.349 107.29C472.349 106.77 472.234 106.325 472.004 105.955C471.774 105.575 471.459 105.29 471.059 105.1C470.669 104.9 470.234 104.8 469.754 104.8C469.064 104.8 468.474 105.02 467.984 105.46C467.504 105.9 467.229 106.51 467.159 107.29H472.349ZM477.226 104.905V109.75C477.226 110.15 477.311 110.435 477.481 110.605C477.651 110.765 477.946 110.845 478.366 110.845H479.371V112H478.141C477.381 112 476.811 111.825 476.431 111.475C476.051 111.125 475.861 110.55 475.861 109.75V104.905H474.796V103.78H475.861V101.71H477.226V103.78H479.371V104.905H477.226ZM488.369 104.905H486.644V112H485.279V104.905H484.214V103.78H485.279V103.195C485.279 102.275 485.514 101.605 485.984 101.185C486.464 100.755 487.229 100.54 488.279 100.54V101.68C487.679 101.68 487.254 101.8 487.004 102.04C486.764 102.27 486.644 102.655 486.644 103.195V103.78H488.369V104.905ZM497.251 103.78V112H495.886V110.785C495.626 111.205 495.261 111.535 494.791 111.775C494.331 112.005 493.821 112.12 493.261 112.12C492.621 112.12 492.046 111.99 491.536 111.73C491.026 111.46 490.621 111.06 490.321 110.53C490.031 110 489.886 109.355 489.886 108.595V103.78H491.236V108.415C491.236 109.225 491.441 109.85 491.851 110.29C492.261 110.72 492.821 110.935 493.531 110.935C494.261 110.935 494.836 110.71 495.256 110.26C495.676 109.81 495.886 109.155 495.886 108.295V103.78H497.251ZM503.56 103.63C504.56 103.63 505.37 103.935 505.99 104.545C506.61 105.145 506.92 106.015 506.92 107.155V112H505.57V107.35C505.57 106.53 505.365 105.905 504.955 105.475C504.545 105.035 503.985 104.815 503.275 104.815C502.555 104.815 501.98 105.04 501.55 105.49C501.13 105.94 500.92 106.595 500.92 107.455V112H499.555V103.78H500.92V104.95C501.19 104.53 501.555 104.205 502.015 103.975C502.485 103.745 503 103.63 503.56 103.63ZM508.64 107.86C508.64 107.02 508.81 106.285 509.15 105.655C509.49 105.015 509.955 104.52 510.545 104.17C511.145 103.82 511.815 103.645 512.555 103.645C513.195 103.645 513.79 103.795 514.34 104.095C514.89 104.385 515.31 104.77 515.6 105.25V100.9H516.98V112H515.6V110.455C515.33 110.945 514.93 111.35 514.4 111.67C513.87 111.98 513.25 112.135 512.54 112.135C511.81 112.135 511.145 111.955 510.545 111.595C509.955 111.235 509.49 110.73 509.15 110.08C508.81 109.43 508.64 108.69 508.64 107.86ZM515.6 107.875C515.6 107.255 515.475 106.715 515.225 106.255C514.975 105.795 514.635 105.445 514.205 105.205C513.785 104.955 513.32 104.83 512.81 104.83C512.3 104.83 511.835 104.95 511.415 105.19C510.995 105.43 510.66 105.78 510.41 106.24C510.16 106.7 510.035 107.24 510.035 107.86C510.035 108.49 510.16 109.04 510.41 109.51C510.66 109.97 510.995 110.325 511.415 110.575C511.835 110.815 512.3 110.935 512.81 110.935C513.32 110.935 513.785 110.815 514.205 110.575C514.635 110.325 514.975 109.97 515.225 109.51C515.475 109.04 515.6 108.495 515.6 107.875ZM526.787 107.575C526.787 107.835 526.772 108.11 526.742 108.4H520.172C520.222 109.21 520.497 109.845 520.997 110.305C521.507 110.755 522.122 110.98 522.842 110.98C523.432 110.98 523.922 110.845 524.312 110.575C524.712 110.295 524.992 109.925 525.152 109.465H526.622C526.402 110.255 525.962 110.9 525.302 111.4C524.642 111.89 523.822 112.135 522.842 112.135C522.062 112.135 521.362 111.96 520.742 111.61C520.132 111.26 519.652 110.765 519.302 110.125C518.952 109.475 518.777 108.725 518.777 107.875C518.777 107.025 518.947 106.28 519.287 105.64C519.627 105 520.102 104.51 520.712 104.17C521.332 103.82 522.042 103.645 522.842 103.645C523.622 103.645 524.312 103.815 524.912 104.155C525.512 104.495 525.972 104.965 526.292 105.565C526.622 106.155 526.787 106.825 526.787 107.575ZM525.377 107.29C525.377 106.77 525.262 106.325 525.032 105.955C524.802 105.575 524.487 105.29 524.087 105.1C523.697 104.9 523.262 104.8 522.782 104.8C522.092 104.8 521.502 105.02 521.012 105.46C520.532 105.9 520.257 106.51 520.187 107.29H525.377ZM528.079 107.86C528.079 107.02 528.249 106.285 528.589 105.655C528.929 105.015 529.394 104.52 529.984 104.17C530.584 103.82 531.254 103.645 531.994 103.645C532.634 103.645 533.229 103.795 533.779 104.095C534.329 104.385 534.749 104.77 535.039 105.25V100.9H536.419V112H535.039V110.455C534.769 110.945 534.369 111.35 533.839 111.67C533.309 111.98 532.689 112.135 531.979 112.135C531.249 112.135 530.584 111.955 529.984 111.595C529.394 111.235 528.929 110.73 528.589 110.08C528.249 109.43 528.079 108.69 528.079 107.86ZM535.039 107.875C535.039 107.255 534.914 106.715 534.664 106.255C534.414 105.795 534.074 105.445 533.644 105.205C533.224 104.955 532.759 104.83 532.249 104.83C531.739 104.83 531.274 104.95 530.854 105.19C530.434 105.43 530.099 105.78 529.849 106.24C529.599 106.7 529.474 107.24 529.474 107.86C529.474 108.49 529.599 109.04 529.849 109.51C530.099 109.97 530.434 110.325 530.854 110.575C531.274 110.815 531.739 110.935 532.249 110.935C532.759 110.935 533.224 110.815 533.644 110.575C534.074 110.325 534.414 109.97 534.664 109.51C534.914 109.04 535.039 108.495 535.039 107.875Z" fill="#8A9099"/>
<g filter="url(#filter2_d_24_499)">
<circle cx="224.5" cy="366.5" r="63.5" fill="white"/>
</g>
<path fill-rule="evenodd" clip-rule="evenodd" d="M236.305 343.647C235.433 343.414 234.449 343.359 233.161 343.347C232.387 340.604 229.866 338.594 226.875 338.594H222.125C219.134 338.594 216.613 340.604 215.838 343.347C214.55 343.359 213.567 343.414 212.695 343.647C209.621 344.471 207.221 346.871 206.397 349.945C206.092 351.082 206.093 352.407 206.094 354.35L206.094 354.625V376.475V376.551C206.094 378.482 206.094 380.039 206.197 381.3C206.303 382.598 206.527 383.738 207.064 384.793C207.918 386.469 209.281 387.832 210.956 388.686C212.011 389.223 213.152 389.447 214.45 389.553C215.711 389.656 217.268 389.656 219.199 389.656H219.275H229.725H229.801C231.732 389.656 233.289 389.656 234.55 389.553C235.848 389.447 236.988 389.223 238.043 388.686C239.719 387.832 241.082 386.469 241.935 384.793C242.473 383.738 242.697 382.598 242.803 381.3C242.906 380.039 242.906 378.482 242.906 376.551V376.475V354.625L242.906 354.35C242.907 352.407 242.907 351.082 242.602 349.945C241.779 346.871 239.378 344.471 236.305 343.647ZM222.125 342.156C220.485 342.156 219.156 343.485 219.156 345.125C219.156 346.765 220.485 348.094 222.125 348.094H226.875C228.514 348.094 229.844 346.765 229.844 345.125C229.844 343.485 228.514 342.156 226.875 342.156H222.125ZM232.884 360.49C233.58 361.186 233.58 362.314 232.884 363.009L223.384 372.509C223.05 372.844 222.597 373.031 222.125 373.031C221.652 373.031 221.199 372.844 220.865 372.509L217.303 368.947C216.607 368.251 216.607 367.124 217.303 366.428C217.998 365.732 219.126 365.732 219.822 366.428L222.125 368.731L230.365 360.49C231.061 359.795 232.189 359.795 232.884 360.49Z" fill="url(#paint5_linear_24_499)"/>
<circle cx="223.5" cy="366.5" r="51.5" stroke="#6B48FF" stroke-opacity="0.46" stroke-width="2" stroke-dasharray="30 30"/>
<path d="M491.5 229C438.757 229 399 191.243 399 138.5" stroke="#6C49FF" stroke-width="6" stroke-linecap="round"/>
<path d="M590 125.5C590 72.7568 550.243 38 497.5 38" stroke="#6C49FF" stroke-width="6" stroke-linecap="round"/>
<g filter="url(#filter3_d_24_499)">
<path d="M590 137C590 189.743 550.743 229 498 229" stroke="url(#paint6_linear_24_499)" stroke-width="6" stroke-linecap="round" shape-rendering="crispEdges"/>
</g>
<g filter="url(#filter4_d_24_499)">
<path d="M399 129C399 76.2568 437.757 38 490.5 38" stroke="url(#paint7_linear_24_499)" stroke-width="6" stroke-linecap="round" shape-rendering="crispEdges"/>
</g>
<defs>
<filter id="filter0_b_24_499" x="-20" y="24" width="330" height="244" filterUnits="userSpaceOnUse" color-interpolation-filters="sRGB">
<feFlood flood-opacity="0" result="BackgroundImageFix"/>
<feGaussianBlur in="BackgroundImage" stdDeviation="10"/>
<feComposite in2="SourceAlpha" operator="in" result="effect1_backgroundBlur_24_499"/>
<feBlend mode="normal" in="SourceGraphic" in2="effect1_backgroundBlur_24_499" result="shape"/>
</filter>
<filter id="filter1_d_24_499" x="341" y="0" width="308" height="308" filterUnits="userSpaceOnUse" color-interpolation-filters="sRGB">
<feFlood flood-opacity="0" result="BackgroundImageFix"/>
<feColorMatrix in="SourceAlpha" type="matrix" values="0 0 0 0 0 0 0 0 0 0 0 0 0 0 0 0 0 0 127 0" result="hardAlpha"/>
<feOffset dy="20"/>
<feGaussianBlur stdDeviation="15"/>
<feComposite in2="hardAlpha" operator="out"/>
<feColorMatrix type="matrix" values="0 0 0 0 0 0 0 0 0 0 0 0 0 0 0 0 0 0 0.06 0"/>
<feBlend mode="normal" in2="BackgroundImageFix" result="effect1_dropShadow_24_499"/>
<feBlend mode="normal" in="SourceGraphic" in2="effect1_dropShadow_24_499" result="shape"/>
</filter>
<filter id="filter2_d_24_499" x="141" y="298" width="167" height="167" filterUnits="userSpaceOnUse" color-interpolation-filters="sRGB">
<feFlood flood-opacity="0" result="BackgroundImageFix"/>
<feColorMatrix in="SourceAlpha" type="matrix" values="0 0 0 0 0 0 0 0 0 0 0 0 0 0 0 0 0 0 127 0" result="hardAlpha"/>
<feOffset dy="15"/>
<feGaussianBlur stdDeviation="10"/>
<feComposite in2="hardAlpha" operator="out"/>
<feColorMatrix type="matrix" values="0 0 0 0 0 0 0 0 0 0 0 0 0 0 0 0 0 0 0.09 0"/>
<feBlend mode="normal" in2="BackgroundImageFix" result="effect1_dropShadow_24_499"/>
<feBlend mode="normal" in="SourceGraphic" in2="effect1_dropShadow_24_499" result="shape"/>
</filter>
<filter id="filter3_d_24_499" x="455" y="124" width="178" height="178" filterUnits="userSpaceOnUse" color-interpolation-filters="sRGB">
<feFlood flood-opacity="0" result="BackgroundImageFix"/>
<feColorMatrix in="SourceAlpha" type="matrix" values="0 0 0 0 0 0 0 0 0 0 0 0 0 0 0 0 0 0 127 0" result="hardAlpha"/>
<feOffset dy="30"/>
<feGaussianBlur stdDeviation="20"/>
<feComposite in2="hardAlpha" operator="out"/>
<feColorMatrix type="matrix" values="0 0 0 0 0 0 0 0 0 0 0 0 0 0 0 0 0 0 0.04 0"/>
<feBlend mode="normal" in2="BackgroundImageFix" result="effect1_dropShadow_24_499"/>
<feBlend mode="normal" in="SourceGraphic" in2="effect1_dropShadow_24_499" result="shape"/>
</filter>
<filter id="filter4_d_24_499" x="356" y="25" width="177.5" height="177" filterUnits="userSpaceOnUse" color-interpolation-filters="sRGB">
<feFlood flood-opacity="0" result="BackgroundImageFix"/>
<feColorMatrix in="SourceAlpha" type="matrix" values="0 0 0 0 0 0 0 0 0 0 0 0 0 0 0 0 0 0 127 0" result="hardAlpha"/>
<feOffset dy="30"/>
<feGaussianBlur stdDeviation="20"/>
<feComposite in2="hardAlpha" operator="out"/>
<feColorMatrix type="matrix" values="0 0 0 0 0 0 0 0 0 0 0 0 0 0 0 0 0 0 0.04 0"/>
<feBlend mode="normal" in2="BackgroundImageFix" result="effect1_dropShadow_24_499"/>
<feBlend mode="normal" in="SourceGraphic" in2="effect1_dropShadow_24_499" result="shape"/>
</filter>
<linearGradient id="paint0_linear_24_499" x1="314.544" y1="200.889" x2="314.544" y2="342.016" gradientUnits="userSpaceOnUse">
<stop stop-color="#6B48FF" stop-opacity="0.46"/>
<stop offset="1" stop-color="#6B48FF"/>
</linearGradient>
<linearGradient id="paint1_linear_24_499" x1="387.761" y1="234" x2="387.761" y2="342.017" gradientUnits="userSpaceOnUse">
<stop stop-color="#6B48FF" stop-opacity="0.46"/>
<stop offset="1" stop-color="#6B48FF"/>
</linearGradient>
<linearGradient id="paint2_linear_24_499" x1="460.978" y1="288" x2="460.978" y2="342.016" gradientUnits="userSpaceOnUse">
<stop stop-color="#6B48FF" stop-opacity="0.46"/>
<stop offset="1" stop-color="#6B48FF"/>
</linearGradient>
<linearGradient id="paint3_linear_24_499" x1="0" y1="44" x2="290" y2="248" gradientUnits="userSpaceOnUse">
<stop offset="0.0142714" stop-color="white"/>
<stop offset="1" stop-color="white" stop-opacity="0.53"/>
</linearGradient>
<linearGradient id="paint4_linear_24_499" x1="141.5" y1="154" x2="141.5" y2="230" gradientUnits="userSpaceOnUse">
<stop stop-color="#304CFD"/>
<stop offset="1" stop-color="#304CFD" stop-opacity="0"/>
</linearGradient>
<linearGradient id="paint5_linear_24_499" x1="224.5" y1="338.594" x2="224.5" y2="389.656" gradientUnits="userSpaceOnUse">
<stop stop-color="#3F2F92"/>
<stop offset="1" stop-color="#6B48FF"/>
</linearGradient>
<linearGradient id="paint6_linear_24_499" x1="505" y1="229" x2="511" y2="137" gradientUnits="userSpaceOnUse">
<stop stop-color="#6B48FF" stop-opacity="0"/>
<stop offset="1" stop-color="#6B48FF"/>
</linearGradient>
<linearGradient id="paint7_linear_24_499" x1="444.75" y1="38" x2="444.75" y2="129" gradientUnits="userSpaceOnUse">
<stop stop-color="#6B48FF" stop-opacity="0"/>
<stop offset="0.970971" stop-color="#6B48FF"/>
</linearGradient>
</defs>
</svg>
