<svg width="346" height="304" viewBox="0 0 346 304" fill="none" xmlns="http://www.w3.org/2000/svg">
<rect x="1.5" y="1.5" width="343" height="301" rx="18.5" fill="white" stroke="url(#paint0_linear_63_1685)" stroke-width="3"/>
<g filter="url(#filter0_d_63_1685)">
<rect x="28" y="50" width="290" height="204" rx="10" fill="white"/>
</g>
<path d="M62.99 114.547C64.41 114.987 65.55 115.407 66.41 115.807C67.29 116.207 68.03 116.817 68.63 117.637C69.25 118.437 69.56 119.507 69.56 120.847C69.56 121.887 69.29 122.857 68.75 123.757C68.23 124.637 67.44 125.347 66.38 125.887C65.32 126.427 64.02 126.697 62.48 126.697H62.42V129.097H61.4V126.637C59.42 126.477 57.8 125.857 56.54 124.777C55.28 123.677 54.58 122.287 54.44 120.607H58.1C58.18 121.387 58.5 122.097 59.06 122.737C59.64 123.377 60.42 123.777 61.4 123.937V117.127C59.76 116.627 58.51 116.197 57.65 115.837C56.79 115.457 56.03 114.857 55.37 114.037C54.71 113.217 54.38 112.117 54.38 110.737C54.38 109.617 54.67 108.627 55.25 107.767C55.85 106.907 56.68 106.237 57.74 105.757C58.8 105.277 60.02 105.037 61.4 105.037V102.487H62.42V105.067C64.38 105.207 65.94 105.787 67.1 106.807C68.26 107.827 68.93 109.117 69.11 110.677H65.42C65.3 109.957 64.98 109.337 64.46 108.817C63.96 108.277 63.28 107.927 62.42 107.767V114.367L62.99 114.547ZM58.04 110.617C58.04 111.497 58.33 112.197 58.91 112.717C59.49 113.217 60.32 113.657 61.4 114.037V107.677C60.36 107.697 59.54 107.967 58.94 108.487C58.34 108.987 58.04 109.697 58.04 110.617ZM62.42 124.027C63.52 124.027 64.37 123.737 64.97 123.157C65.59 122.577 65.9 121.837 65.9 120.937C65.9 120.017 65.6 119.307 65 118.807C64.4 118.287 63.54 117.837 62.42 117.457V124.027ZM71.2904 108.517V105.307H78.0704V126.487H74.4704V108.517H71.2904ZM81.2996 123.817C84.5396 121.597 87.1296 119.427 89.0696 117.307C91.0296 115.167 92.0096 113.187 92.0096 111.367C92.0096 110.287 91.7396 109.427 91.1996 108.787C90.6796 108.147 89.8296 107.827 88.6496 107.827C87.4296 107.827 86.5096 108.227 85.8896 109.027C85.2696 109.807 84.9196 110.927 84.8396 112.387H81.5096C81.6496 109.967 82.3896 108.117 83.7296 106.837C85.0896 105.557 86.8196 104.917 88.9196 104.917C90.9796 104.917 92.5896 105.467 93.7496 106.567C94.9296 107.647 95.5196 109.147 95.5196 111.067C95.5196 112.607 95.0396 114.167 94.0796 115.747C93.1396 117.327 91.9396 118.787 90.4796 120.127C89.0196 121.447 87.5096 122.587 85.9496 123.547H95.9996V126.337H81.2996V123.817ZM113.351 108.007H102.881V114.307C103.361 113.687 104.041 113.197 104.921 112.837C105.801 112.457 106.771 112.267 107.831 112.267C109.311 112.267 110.541 112.587 111.521 113.227C112.501 113.847 113.221 114.677 113.681 115.717C114.161 116.757 114.401 117.907 114.401 119.167C114.401 121.387 113.781 123.187 112.541 124.567C111.301 125.927 109.501 126.607 107.141 126.607C104.921 126.607 103.131 126.017 101.771 124.837C100.411 123.657 99.6711 122.087 99.5511 120.127H102.911C103.091 121.207 103.531 122.057 104.231 122.677C104.951 123.297 105.861 123.607 106.961 123.607C108.321 123.607 109.341 123.197 110.021 122.377C110.701 121.557 111.041 120.467 111.041 119.107C111.041 117.827 110.691 116.827 109.991 116.107C109.291 115.367 108.291 114.997 106.991 114.997C106.071 114.997 105.261 115.197 104.561 115.597C103.881 115.997 103.381 116.527 103.061 117.187H99.7311V104.977H113.351V108.007ZM120.012 124.147C120.372 125.067 120.552 126.017 120.552 126.997C120.552 128.117 120.262 129.027 119.682 129.727C119.102 130.447 118.222 130.807 117.042 130.807V129.427C117.542 129.427 117.912 129.297 118.152 129.037C118.392 128.777 118.512 128.337 118.512 127.717V127.447H116.772V124.147H120.012ZM123.203 115.747C123.203 119.127 123.803 121.777 125.003 123.697C126.203 125.597 128.203 126.547 131.003 126.547C133.803 126.547 135.803 125.587 137.003 123.667C138.203 121.747 138.803 119.107 138.803 115.747C138.803 112.407 138.203 109.787 137.003 107.887C135.803 105.967 133.803 105.007 131.003 105.007C128.203 105.007 126.203 105.957 125.003 107.857C123.803 109.757 123.203 112.387 123.203 115.747ZM135.383 115.747C135.383 118.187 135.083 120.057 134.483 121.357C133.883 122.657 132.723 123.307 131.003 123.307C129.263 123.307 128.093 122.657 127.493 121.357C126.893 120.057 126.593 118.187 126.593 115.747C126.593 113.327 126.893 111.477 127.493 110.197C128.093 108.917 129.263 108.277 131.003 108.277C132.723 108.277 133.883 108.927 134.483 110.227C135.083 111.507 135.383 113.347 135.383 115.747ZM141.894 115.747C141.894 119.127 142.494 121.777 143.694 123.697C144.894 125.597 146.894 126.547 149.694 126.547C152.494 126.547 154.494 125.587 155.694 123.667C156.894 121.747 157.494 119.107 157.494 115.747C157.494 112.407 156.894 109.787 155.694 107.887C154.494 105.967 152.494 105.007 149.694 105.007C146.894 105.007 144.894 105.957 143.694 107.857C142.494 109.757 141.894 112.387 141.894 115.747ZM154.074 115.747C154.074 118.187 153.774 120.057 153.174 121.357C152.574 122.657 151.414 123.307 149.694 123.307C147.954 123.307 146.784 122.657 146.184 121.357C145.584 120.057 145.284 118.187 145.284 115.747C145.284 113.327 145.584 111.477 146.184 110.197C146.784 108.917 147.954 108.277 149.694 108.277C151.414 108.277 152.574 108.927 153.174 110.227C153.774 111.507 154.074 113.347 154.074 115.747ZM160.585 115.747C160.585 119.127 161.185 121.777 162.385 123.697C163.585 125.597 165.585 126.547 168.385 126.547C171.185 126.547 173.185 125.587 174.385 123.667C175.585 121.747 176.185 119.107 176.185 115.747C176.185 112.407 175.585 109.787 174.385 107.887C173.185 105.967 171.185 105.007 168.385 105.007C165.585 105.007 163.585 105.957 162.385 107.857C161.185 109.757 160.585 112.387 160.585 115.747ZM172.765 115.747C172.765 118.187 172.465 120.057 171.865 121.357C171.265 122.657 170.105 123.307 168.385 123.307C166.645 123.307 165.475 122.657 164.875 121.357C164.275 120.057 163.975 118.187 163.975 115.747C163.975 113.327 164.275 111.477 164.875 110.197C165.475 108.917 166.645 108.277 168.385 108.277C170.105 108.277 171.265 108.927 171.865 110.227C172.465 111.507 172.765 113.347 172.765 115.747Z" fill="#3F434A"/>
<path d="M62.5135 91L59.7535 86.68H58.2685V91H56.9035V80.425H60.3835C61.5835 80.425 62.4835 80.715 63.0835 81.295C63.6835 81.865 63.9835 82.625 63.9835 83.575C63.9835 84.435 63.7435 85.13 63.2635 85.66C62.7835 86.18 62.0885 86.505 61.1785 86.635L64.0585 91H62.5135ZM58.2685 85.69H60.2635C61.8135 85.69 62.5885 85.01 62.5885 83.65C62.5885 82.29 61.8135 81.61 60.2635 81.61H58.2685V85.69ZM73.2237 86.425C73.2237 86.715 73.2036 86.965 73.1636 87.175H66.5786C66.6087 88.115 66.8737 88.82 67.3737 89.29C67.8837 89.76 68.5037 89.995 69.2336 89.995C69.8937 89.995 70.4437 89.83 70.8837 89.5C71.3337 89.16 71.6087 88.71 71.7087 88.15H73.1636C73.0637 88.72 72.8387 89.23 72.4887 89.68C72.1487 90.13 71.7037 90.48 71.1537 90.73C70.6037 90.98 69.9837 91.105 69.2937 91.105C68.5037 91.105 67.8037 90.935 67.1937 90.595C66.5836 90.255 66.1036 89.77 65.7536 89.14C65.4136 88.5 65.2436 87.75 65.2436 86.89C65.2436 86.03 65.4136 85.28 65.7536 84.64C66.1036 84 66.5836 83.51 67.1937 83.17C67.8037 82.83 68.5037 82.66 69.2937 82.66C70.0937 82.66 70.7887 82.83 71.3787 83.17C71.9787 83.51 72.4337 83.965 72.7436 84.535C73.0637 85.105 73.2237 85.735 73.2237 86.425ZM71.8437 86.515C71.8737 85.905 71.7737 85.395 71.5437 84.985C71.3137 84.575 70.9987 84.27 70.5987 84.07C70.1987 83.87 69.7637 83.77 69.2937 83.77C68.5437 83.77 67.9137 84.005 67.4037 84.475C66.8937 84.935 66.6187 85.615 66.5786 86.515H71.8437ZM78.204 89.545L80.754 82.765H82.224L78.999 91H77.379L74.154 82.765H75.624L78.204 89.545ZM91.1387 86.425C91.1387 86.715 91.1187 86.965 91.0787 87.175H84.4937C84.5237 88.115 84.7887 88.82 85.2887 89.29C85.7987 89.76 86.4187 89.995 87.1487 89.995C87.8087 89.995 88.3587 89.83 88.7987 89.5C89.2487 89.16 89.5237 88.71 89.6237 88.15H91.0787C90.9787 88.72 90.7537 89.23 90.4037 89.68C90.0637 90.13 89.6187 90.48 89.0687 90.73C88.5187 90.98 87.8987 91.105 87.2087 91.105C86.4187 91.105 85.7187 90.935 85.1087 90.595C84.4987 90.255 84.0187 89.77 83.6687 89.14C83.3287 88.5 83.1587 87.75 83.1587 86.89C83.1587 86.03 83.3287 85.28 83.6687 84.64C84.0187 84 84.4987 83.51 85.1087 83.17C85.7187 82.83 86.4187 82.66 87.2087 82.66C88.0087 82.66 88.7037 82.83 89.2937 83.17C89.8937 83.51 90.3487 83.965 90.6587 84.535C90.9787 85.105 91.1387 85.735 91.1387 86.425ZM89.7587 86.515C89.7887 85.905 89.6887 85.395 89.4587 84.985C89.2287 84.575 88.9137 84.27 88.5137 84.07C88.1137 83.87 87.6787 83.77 87.2087 83.77C86.4587 83.77 85.8287 84.005 85.3187 84.475C84.8087 84.935 84.5337 85.615 84.4937 86.515H89.7587ZM97.259 82.63C98.219 82.63 98.994 82.94 99.584 83.56C100.174 84.17 100.469 85.055 100.469 86.215V91H99.104V86.335C99.104 85.515 98.894 84.885 98.474 84.445C98.054 84.005 97.484 83.785 96.764 83.785C96.014 83.785 95.414 84.03 94.964 84.52C94.514 85 94.289 85.705 94.289 86.635V91H92.924V82.765H94.289V84.715C94.499 84.045 94.869 83.53 95.399 83.17C95.939 82.81 96.559 82.63 97.259 82.63ZM109.883 82.765V91H108.518V89.065C108.308 89.735 107.933 90.25 107.393 90.61C106.863 90.96 106.243 91.135 105.533 91.135C104.583 91.135 103.813 90.83 103.223 90.22C102.633 89.6 102.338 88.715 102.338 87.565V82.765H103.703V87.43C103.703 88.25 103.913 88.885 104.333 89.335C104.753 89.775 105.323 89.995 106.043 89.995C106.793 89.995 107.393 89.755 107.843 89.275C108.293 88.785 108.518 88.075 108.518 87.145V82.765H109.883ZM119.645 86.425C119.645 86.715 119.625 86.965 119.585 87.175H113C113.03 88.115 113.295 88.82 113.795 89.29C114.305 89.76 114.925 89.995 115.655 89.995C116.315 89.995 116.865 89.83 117.305 89.5C117.755 89.16 118.03 88.71 118.13 88.15H119.585C119.485 88.72 119.26 89.23 118.91 89.68C118.57 90.13 118.125 90.48 117.575 90.73C117.025 90.98 116.405 91.105 115.715 91.105C114.925 91.105 114.225 90.935 113.615 90.595C113.005 90.255 112.525 89.77 112.175 89.14C111.835 88.5 111.665 87.75 111.665 86.89C111.665 86.03 111.835 85.28 112.175 84.64C112.525 84 113.005 83.51 113.615 83.17C114.225 82.83 114.925 82.66 115.715 82.66C116.515 82.66 117.21 82.83 117.8 83.17C118.4 83.51 118.855 83.965 119.165 84.535C119.485 85.105 119.645 85.735 119.645 86.425ZM118.265 86.515C118.295 85.905 118.195 85.395 117.965 84.985C117.735 84.575 117.42 84.27 117.02 84.07C116.62 83.87 116.185 83.77 115.715 83.77C114.965 83.77 114.335 84.005 113.825 84.475C113.315 84.935 113.04 85.615 113 86.515H118.265ZM131.616 80.425V81.535H128.631V91H127.266V81.535H124.281V80.425H131.616ZM136.708 82.66C137.498 82.66 138.203 82.83 138.823 83.17C139.453 83.51 139.943 84 140.293 84.64C140.653 85.28 140.833 86.03 140.833 86.89C140.833 87.75 140.653 88.5 140.293 89.14C139.943 89.77 139.453 90.255 138.823 90.595C138.203 90.935 137.498 91.105 136.708 91.105C135.918 91.105 135.208 90.935 134.578 90.595C133.958 90.255 133.468 89.77 133.108 89.14C132.748 88.5 132.568 87.75 132.568 86.89C132.568 86.03 132.748 85.28 133.108 84.64C133.468 84 133.958 83.51 134.578 83.17C135.208 82.83 135.918 82.66 136.708 82.66ZM136.708 83.86C136.218 83.86 135.763 83.97 135.343 84.19C134.933 84.41 134.598 84.75 134.338 85.21C134.088 85.66 133.963 86.22 133.963 86.89C133.963 87.55 134.088 88.11 134.338 88.57C134.598 89.02 134.933 89.355 135.343 89.575C135.763 89.795 136.218 89.905 136.708 89.905C137.198 89.905 137.648 89.795 138.058 89.575C138.478 89.355 138.813 89.02 139.063 88.57C139.323 88.11 139.453 87.55 139.453 86.89C139.453 86.22 139.323 85.66 139.063 85.21C138.813 84.75 138.478 84.41 138.058 84.19C137.648 83.97 137.198 83.86 136.708 83.86ZM145.987 82.66C146.787 82.66 147.462 82.86 148.012 83.26C148.572 83.66 148.962 84.195 149.182 84.865V79.9H150.547V91H149.182V88.9C148.962 89.57 148.572 90.105 148.012 90.505C147.462 90.905 146.787 91.105 145.987 91.105C145.257 91.105 144.607 90.935 144.037 90.595C143.467 90.255 143.017 89.77 142.687 89.14C142.367 88.5 142.207 87.75 142.207 86.89C142.207 86.03 142.367 85.28 142.687 84.64C143.017 84 143.467 83.51 144.037 83.17C144.607 82.83 145.257 82.66 145.987 82.66ZM146.377 83.875C145.537 83.875 144.862 84.145 144.352 84.685C143.852 85.215 143.602 85.95 143.602 86.89C143.602 87.83 143.852 88.57 144.352 89.11C144.862 89.64 145.537 89.905 146.377 89.905C146.917 89.905 147.397 89.78 147.817 89.53C148.247 89.28 148.582 88.93 148.822 88.48C149.062 88.02 149.182 87.49 149.182 86.89C149.182 86.29 149.062 85.76 148.822 85.3C148.582 84.84 148.247 84.49 147.817 84.25C147.397 84 146.917 83.875 146.377 83.875ZM156.094 82.66C156.894 82.66 157.569 82.86 158.119 83.26C158.679 83.66 159.069 84.195 159.289 84.865V82.765H160.654V91H159.289V88.9C159.069 89.57 158.679 90.105 158.119 90.505C157.569 90.905 156.894 91.105 156.094 91.105C155.364 91.105 154.714 90.935 154.144 90.595C153.574 90.255 153.124 89.77 152.794 89.14C152.474 88.5 152.314 87.75 152.314 86.89C152.314 86.03 152.474 85.28 152.794 84.64C153.124 84 153.574 83.51 154.144 83.17C154.714 82.83 155.364 82.66 156.094 82.66ZM156.484 83.875C155.644 83.875 154.969 84.145 154.459 84.685C153.959 85.215 153.709 85.95 153.709 86.89C153.709 87.83 153.959 88.57 154.459 89.11C154.969 89.64 155.644 89.905 156.484 89.905C157.024 89.905 157.504 89.78 157.924 89.53C158.354 89.28 158.689 88.93 158.929 88.48C159.169 88.02 159.289 87.49 159.289 86.89C159.289 86.29 159.169 85.76 158.929 85.3C158.689 84.84 158.354 84.49 157.924 84.25C157.504 84 157.024 83.875 156.484 83.875ZM163.396 82.765L166.066 89.245L168.541 82.765H170.056L165.166 94.9H163.621L165.331 90.865L161.866 82.765H163.396Z" fill="#8A9099"/>
<path opacity="0.1" d="M106.517 175.803C99.3217 177.629 94.4862 175.874 87.3858 177.959C71.66 182.575 70.5613 204.772 53 203.818V236H286.468V181.55C266.865 181.635 271.129 209.565 249.502 209.565C227.875 209.565 226.296 186.578 205.501 186.578C190.873 186.578 183.178 200.683 167.239 193.762C151.299 186.841 153.197 160 132.303 160C119.955 160 118.365 172.798 106.517 175.803Z" fill="url(#paint1_linear_63_1685)"/>
<path d="M54.9454 203.818C72.5067 204.772 71.6598 182.575 87.3856 177.959C94.486 175.874 99.3215 177.629 106.517 175.803C118.365 172.798 119.955 160 132.303 160C153.196 160 151.299 186.841 167.238 193.762C183.178 200.683 190.873 186.578 205.501 186.578C226.296 186.578 227.875 209.565 249.502 209.565C271.129 209.565 264.919 181.635 284.522 181.55" stroke="#676EB4" stroke-width="2" stroke-linecap="round"/>
<defs>
<filter id="filter0_d_63_1685" x="8" y="45" width="330" height="244" filterUnits="userSpaceOnUse" color-interpolation-filters="sRGB">
<feFlood flood-opacity="0" result="BackgroundImageFix"/>
<feColorMatrix in="SourceAlpha" type="matrix" values="0 0 0 0 0 0 0 0 0 0 0 0 0 0 0 0 0 0 127 0" result="hardAlpha"/>
<feOffset dy="15"/>
<feGaussianBlur stdDeviation="10"/>
<feComposite in2="hardAlpha" operator="out"/>
<feColorMatrix type="matrix" values="0 0 0 0 0 0 0 0 0 0 0 0 0 0 0 0 0 0 0.09 0"/>
<feBlend mode="normal" in2="BackgroundImageFix" result="effect1_dropShadow_63_1685"/>
<feBlend mode="normal" in="SourceGraphic" in2="effect1_dropShadow_63_1685" result="shape"/>
</filter>
<linearGradient id="paint0_linear_63_1685" x1="173" y1="0" x2="173" y2="304" gradientUnits="userSpaceOnUse">
<stop stop-color="#6B48FF" stop-opacity="0"/>
<stop offset="0.970971" stop-color="#6B48FF"/>
</linearGradient>
<linearGradient id="paint1_linear_63_1685" x1="169.734" y1="160" x2="169.734" y2="236" gradientUnits="userSpaceOnUse">
<stop stop-color="#304CFD"/>
<stop offset="1" stop-color="#304CFD" stop-opacity="0"/>
</linearGradient>
</defs>
</svg>
