<svg width="26" height="26" viewBox="0 0 26 26" fill="none" xmlns="http://www.w3.org/2000/svg">
<g clip-path="url(#clip0_11_213)">
<path d="M13.8439 25.4614L24.9865 1.31916C25.1611 0.934742 25.0571 0.476039 24.7265 0.208617C24.396 -0.0606619 23.9261 -0.0699474 23.5863 0.186332L13.0008 8.12542L2.41537 0.186332C2.07552 -0.0699474 1.60381 -0.0606619 1.27511 0.20676C1.0504 0.386899 0.929687 0.656178 0.929687 0.929171C0.929687 1.06102 0.957544 1.19288 1.01511 1.3173L12.1577 25.4596C12.31 25.7901 12.6387 26 13.0008 26C13.363 26 13.6917 25.7901 13.8439 25.4614Z" fill="white"/>
</g>
<defs>
<clipPath id="clip0_11_213">
<rect x="26" width="26" height="26" transform="rotate(90 26 0)" fill="white"/>
</clipPath>
</defs>
</svg>
